<?xml version="1.0" standalone="no"?><!DOCTYPE svg PUBLIC "-//W3C//DTD SVG 1.1//EN" "http://www.w3.org/Graphics/SVG/1.1/DTD/svg11.dtd"><svg width="100%" height="100%" viewBox="0 0 446 503" version="1.1" xmlns="http://www.w3.org/2000/svg" xmlns:xlink="http://www.w3.org/1999/xlink" xml:space="preserve" style="fill-rule:evenodd;clip-rule:evenodd;stroke-linecap:round;stroke-linejoin:round;stroke-miterlimit:1.41421;"><path d="M103.091,501.184c-10.1,-32.629 -13.862,-69.735 -18.994,-99.8c-3.786,-22.172 -5.895,-45.817 -17.372,-65.561c-6.78,-11.664 -13.243,-25.214 -22.756,-34.9c-11.27,-11.473 -35.913,-18.863 -41.051,-35.424c-2.568,-8.276 -1.998,-17.376 -1.998,-25.907c0,-7.157 0.151,-13.626 1.845,-20.62c2.077,-8.58 4.136,-17.386 8.303,-25.247c21.512,-40.588 75.677,-69.266 120.694,-69.266c10.522,0 40.152,5.909 47.508,15.07c8.265,10.294 -6.018,24.886 -16.453,18.505c-4.373,-2.674 -2.524,-10.162 1.229,-11.234c7.344,-2.098 6.305,5.469 6.305,4.758" style="fill:none;stroke-width:1px;stroke:#000;"/><path d="M187.673,74.613l0.145,0.009l0.144,0.013l0.144,0.015l0.143,0.019l0.143,0.022l0.142,0.024l0.141,0.027l0.141,0.031l0.14,0.032l0.139,0.036l0.139,0.039l0.137,0.041l0.137,0.044l0.137,0.046l0.135,0.049l0.135,0.051l0.134,0.054l0.133,0.056l0.132,0.059l0.132,0.061l0.13,0.064l0.13,0.065l0.129,0.068l0.127,0.07l0.127,0.073l0.127,0.074l0.125,0.077l0.124,0.078l0.123,0.081l0.123,0.082l0.121,0.085l0.121,0.086l0.119,0.089l0.119,0.09l0.117,0.092l0.117,0.093l0.115,0.096l0.115,0.097l0.113,0.099l0.113,0.1l0.111,0.102l0.111,0.104l0.109,0.105l0.108,0.107l0.107,0.108l0.107,0.11l0.105,0.111l0.103,0.112l0.103,0.114l0.102,0.115l0.1,0.116l0.1,0.118l0.098,0.118l0.097,0.12l0.096,0.122l0.095,0.122l0.093,0.123l0.093,0.124l0.091,0.126l0.09,0.126l0.088,0.128l0.088,0.128l0.086,0.129l0.085,0.13l0.083,0.131l0.083,0.132l0.081,0.133l0.08,0.133l0.078,0.134l0.077,0.134l0.076,0.136l0.074,0.136l0.074,0.136l0.071,0.137l0.071,0.138l0.068,0.138l0.068,0.139l0.066,0.139l0.065,0.139l0.063,0.14l0.062,0.141l0.06,0.14l0.059,0.141l0.057,0.141l0.056,0.142l0.054,0.141l0.053,0.142l0.051,0.142l0.05,0.142l0.048,0.142l0.047,0.142l0.058,0.185l0.056,0.186l0.055,0.186l0.052,0.186l0.05,0.186l0.049,0.187l0.046,0.187l0.044,0.187l0.042,0.187l0.04,0.187l0.038,0.188l0.035,0.188l0.034,0.188l0.032,0.188l0.029,0.188l0.028,0.188l0.026,0.188l0.023,0.188l0.022,0.188l0.019,0.188l0.017,0.188l0.016,0.188l0.013,0.188l0.011,0.188l0.009,0.188l0.007,0.187l0.005,0.188l0.003,0.187l0.001,0.187l-0.001,0.187l-0.003,0.186l-0.005,0.186l-0.007,0.186l-0.009,0.186l-0.012,0.185l-0.013,0.185l-0.015,0.185l-0.018,0.184l-0.019,0.184l-0.022,0.184l-0.023,0.182l-0.026,0.183l-0.028,0.182l-0.029,0.181l-0.032,0.181l-0.034,0.181l-0.036,0.18l-0.037,0.179l-0.04,0.178l-0.042,0.179l-0.044,0.177l-0.046,0.176l-0.048,0.176l-0.05,0.176l-0.053,0.174l-0.054,0.174l-0.056,0.173l-0.058,0.172l-0.061,0.171l-0.062,0.171l-0.064,0.17l-0.067,0.168l-0.068,0.168l-0.071,0.167l-0.072,0.166l-0.075,0.165l-0.076,0.164l-0.079,0.163l-0.081,0.162l-0.083,0.161l-0.084,0.16l-0.087,0.159l-0.089,0.158l-0.091,0.156l-0.093,0.155l-0.095,0.155l-0.097,0.152l-0.099,0.152l-0.101,0.151l-0.103,0.149l-0.106,0.148l-0.107,0.146l-0.109,0.146l-0.111,0.143l-0.113,0.143l-0.116,0.141l-0.117,0.14l-0.12,0.138l-0.121,0.137l-0.123,0.135l-0.126,0.134l-0.127,0.132l-0.13,0.13l-0.131,0.129l-0.134,0.128l-0.135,0.126l-0.138,0.124l-0.139,0.122l-0.142,0.121l-0.143,0.119l-0.146,0.118l-0.147,0.115l-0.15,0.114l-0.151,0.112l-0.154,0.11l-0.155,0.108l-0.158,0.107l-0.159,0.104l-0.162,0.103l-0.163,0.101l-0.166,0.098l-0.167,0.097l-0.169,0.095l-0.171,0.093l-0.174,0.09l-0.175,0.089l-0.177,0.087l-0.179,0.084l-0.181,0.082l-0.183,0.081l-0.185,0.078l-0.186,0.075l-0.189,0.074l-0.191,0.072l-0.192,0.069l-0.195,0.067l-0.196,0.064l-0.198,0.062l-0.139,0.042l-0.138,0.041l-0.139,0.041l-0.138,0.039l-0.137,0.038l-0.138,0.037l-0.137,0.036l-0.137,0.035l-0.137,0.034l-0.137,0.033l-0.137,0.032l-0.136,0.032l-0.136,0.03l-0.136,0.029l-0.136,0.028l-0.136,0.028l-0.135,0.026l-0.135,0.026l-0.135,0.024l-0.135,0.024l-0.134,0.022l-0.135,0.022l-0.134,0.02l-0.133,0.02l-0.134,0.019l-0.133,0.018l-0.134,0.017l-0.133,0.016l-0.133,0.015l-0.132,0.014l-0.132,0.013l-0.132,0.013l-0.132,0.011l-0.132,0.011l-0.131,0.009l-0.132,0.009l-0.131,0.008l-0.13,0.007l-0.131,0.006l-0.13,0.005l-0.13,0.004l-0.13,0.003l-0.129,0.003l-0.129,0.001l-0.13,0.001l-0.128,0l-0.129,-0.001l-0.128,-0.002l-0.128,-0.003l-0.128,-0.004l-0.128,-0.004l-0.127,-0.006l-0.127,-0.006l-0.127,-0.007l-0.126,-0.008l-0.127,-0.009l-0.126,-0.009l-0.125,-0.011l-0.126,-0.011l-0.125,-0.013l-0.125,-0.013l-0.125,-0.013l-0.124,-0.015l-0.124,-0.016l-0.124,-0.016l-0.124,-0.017l-0.123,-0.018l-0.123,-0.019l-0.123,-0.02l-0.122,-0.02l-0.123,-0.021l-0.122,-0.022l-0.121,-0.023l-0.122,-0.024l-0.121,-0.024l-0.121,-0.025l-0.12,-0.026l-0.12,-0.027l-0.12,-0.028l-0.12,-0.028l-0.119,-0.029l-0.12,-0.03l-0.118,-0.031l-0.119,-0.031l-0.118,-0.032l-0.118,-0.033l-0.118,-0.034l-0.117,-0.034l-0.117,-0.035l-0.117,-0.036l-0.116,-0.037l-0.116,-0.037l-0.116,-0.039l-0.115,-0.038l-0.116,-0.04l-0.114,-0.04l-0.115,-0.042l-0.114,-0.041l-0.114,-0.043l-0.114,-0.043l-0.113,-0.044l-0.113,-0.045l-0.113,-0.045l-0.113,-0.047l-0.223,-0.093l-0.222,-0.098l-0.221,-0.099l-0.22,-0.103l-0.219,-0.105l-0.217,-0.108l-0.216,-0.111l-0.215,-0.113l-0.213,-0.115l-0.212,-0.119l-0.21,-0.121l-0.209,-0.123l-0.208,-0.126l-0.206,-0.129l-0.205,-0.13l-0.204,-0.134l-0.202,-0.136l-0.201,-0.138l-0.199,-0.14l-0.198,-0.143l-0.196,-0.145l-0.195,-0.147l-0.194,-0.15l-0.192,-0.152l-0.191,-0.154l-0.189,-0.156l-0.187,-0.159l-0.186,-0.16l-0.185,-0.163l-0.183,-0.165l-0.182,-0.166l-0.18,-0.169l-0.179,-0.171l-0.177,-0.173l-0.175,-0.175l-0.174,-0.177l-0.173,-0.179l-0.171,-0.18l-0.169,-0.183l-0.168,-0.184l-0.166,-0.186l-0.165,-0.188l-0.162,-0.19l-0.162,-0.192l-0.16,-0.193l-0.158,-0.195l-0.156,-0.196l-0.155,-0.199l-0.154,-0.2l-0.151,-0.201l-0.15,-0.203l-0.149,-0.205l-0.146,-0.207l-0.145,-0.207l-0.144,-0.21l-0.141,-0.21l-0.14,-0.213l-0.138,-0.213l-0.137,-0.215l-0.135,-0.217l-0.133,-0.218l-0.131,-0.219l-0.13,-0.22l-0.128,-0.222l-0.126,-0.223l-0.125,-0.225l-0.122,-0.225l-0.121,-0.227l-0.119,-0.228l-0.118,-0.229l-0.115,-0.23l-0.114,-0.232l-0.112,-0.232l-0.11,-0.233l-0.108,-0.235l-0.107,-0.236l-0.104,-0.236l-0.103,-0.238l-0.101,-0.238l-0.099,-0.24l-0.098,-0.24l-0.095,-0.241l-0.093,-0.242l-0.092,-0.243l-0.09,-0.244l-0.088,-0.244l-0.086,-0.246l-0.084,-0.246l-0.082,-0.246l-0.08,-0.248l-0.078,-0.248l-0.076,-0.249l-0.075,-0.249l-0.072,-0.25l-0.07,-0.251l-0.069,-0.251l-0.066,-0.252l-0.065,-0.252l-0.062,-0.253l-0.06,-0.253l-0.059,-0.254l-0.056,-0.254l-0.055,-0.255l-0.052,-0.254l-0.05,-0.256l-0.049,-0.256l-0.046,-0.255l-0.044,-0.257l-0.042,-0.256l-0.04,-0.257l-0.038,-0.257l-0.035,-0.257l-0.034,-0.258l-0.032,-0.257l-0.029,-0.258l-0.027,-0.258l-0.025,-0.258l-0.023,-0.258l-0.021,-0.258l-0.019,-0.258l-0.016,-0.258l-0.015,-0.258l-0.012,-0.258l-0.01,-0.258l-0.007,-0.258l-0.006,-0.257l-0.003,-0.258l-0.001,-0.258l0.001,-0.257l0.003,-0.257l0.006,-0.257l0.008,-0.256l0.01,-0.257l0.013,-0.256l0.014,-0.256l0.017,-0.255l0.02,-0.255l0.021,-0.255l0.024,-0.254l0.027,-0.254l0.028,-0.253l0.031,-0.253l0.034,-0.252l0.036,-0.252l0.038,-0.252l0.04,-0.25l0.043,-0.251l0.045,-0.249l0.048,-0.249l0.05,-0.248l0.053,-0.248l0.055,-0.247l0.057,-0.246l0.06,-0.245l0.062,-0.245l0.065,-0.244l0.067,-0.243l0.07,-0.242l0.072,-0.241l0.075,-0.24l0.077,-0.24l0.08,-0.238l0.082,-0.238l0.085,-0.236l0.088,-0.236l0.09,-0.235l0.092,-0.233l0.095,-0.232l0.098,-0.232l0.1,-0.23l0.103,-0.229l0.105,-0.227l0.108,-0.227l0.111,-0.225l0.113,-0.224l0.116,-0.223l0.119,-0.222l0.121,-0.22l0.124,-0.219l0.127,-0.217l0.129,-0.216l0.132,-0.215l0.134,-0.212l0.069,-0.107l0.069,-0.105l0.07,-0.106l0.07,-0.104l0.071,-0.105l0.072,-0.104l0.072,-0.104l0.073,-0.103l0.074,-0.103l0.074,-0.103l0.076,-0.102l0.075,-0.101l0.077,-0.102l0.077,-0.101l0.078,-0.1l0.079,-0.1l0.079,-0.1l0.08,-0.099l0.08,-0.099l0.082,-0.098l0.082,-0.098l0.083,-0.098l0.083,-0.097l0.084,-0.096l0.085,-0.097l0.085,-0.095l0.087,-0.096l0.087,-0.095l0.087,-0.094l0.089,-0.094l0.089,-0.093l0.089,-0.093l0.091,-0.093l0.091,-0.092l0.092,-0.091l0.092,-0.091l0.094,-0.091l0.094,-0.09l0.094,-0.09l0.096,-0.089l0.096,-0.088l0.097,-0.089l0.07,-0.063l0.071,-0.062l0.071,-0.062l0.072,-0.061l0.072,-0.061l0.074,-0.061l0.146,-0.117l0.149,-0.116l0.151,-0.113l0.153,-0.111l0.154,-0.108l0.156,-0.106l0.158,-0.104l0.16,-0.101l0.161,-0.099l0.163,-0.097l0.164,-0.094l0.166,-0.092l0.167,-0.09l0.169,-0.088l0.17,-0.086l0.172,-0.083l0.173,-0.081l0.174,-0.08l0.175,-0.077l0.177,-0.075l0.178,-0.073l0.18,-0.071l0.18,-0.069l0.182,-0.067l0.183,-0.066l0.183,-0.063l0.185,-0.061l0.186,-0.06l0.187,-0.058l0.188,-0.056l0.189,-0.054l0.19,-0.052l0.19,-0.051l0.192,-0.049l0.192,-0.047l0.193,-0.046l0.194,-0.044l0.195,-0.042l0.196,-0.041l0.196,-0.039l0.196,-0.038l0.198,-0.036l0.198,-0.035l0.198,-0.033l0.2,-0.032l0.199,-0.03l0.2,-0.029l0.201,-0.027l0.201,-0.026l0.201,-0.025l0.202,-0.023l0.203,-0.022l0.202,-0.021l0.203,-0.019l0.203,-0.019l0.203,-0.017l0.204,-0.016l0.204,-0.014l0.204,-0.014l0.204,-0.012l0.204,-0.012l0.204,-0.01l0.204,-0.009l0.205,-0.008l0.204,-0.007l0.204,-0.006l0.204,-0.005l0.204,-0.004l0.204,-0.004l0.204,-0.002l0.204,-0.001l0.203,-0.001l0.204,0.001l0.203,0.001l0.202,0.002l0.203,0.003l0.202,0.003l0.403,0.01l0.401,0.012l0.399,0.015l0.397,0.017l0.395,0.02l0.392,0.022l0.389,0.023l0.386,0.026l0.383,0.027l0.379,0.029l0.375,0.031l0.372,0.031l0.367,0.032l0.363,0.034l0.358,0.033l0.353,0.035l0.348,0.035l0.342,0.035l0.668,0.069l1.26,0.135l2.393,0.254l1.119,0.12l0.542,0.059l0.53,0.059l0.519,0.058l0.509,0.058l0.498,0.059l0.488,0.059l0.479,0.059l0.47,0.06l0.462,0.061l0.453,0.062l0.445,0.063l0.438,0.065l0.431,0.066l0.424,0.068l0.21,0.035l0.208,0.036l0.207,0.036l0.205,0.036l0.204,0.037l0.203,0.038l0.202,0.039l0.2,0.039l0.199,0.04l0.198,0.04l0.197,0.042l0.196,0.042l0.195,0.043l0.193,0.044l0.194,0.045l0.192,0.045l0.191,0.047l0.191,0.047l0.19,0.048l0.19,0.05l0.188,0.05l0.189,0.052l0.187,0.052l0.188,0.053l0.187,0.055l0.186,0.056l0.187,0.057l0.185,0.058l0.186,0.059l0.186,0.06l0.185,0.062l0.186,0.063l0.185,0.064l0.185,0.065l0.186,0.067l0.185,0.068l0.186,0.07l0.186,0.071l0.186,0.072l0.186,0.074l0.187,0.075l0.187,0.077l0.187,0.078l0.188,0.08l0.189,0.081l0.189,0.083l0.19,0.085l0.19,0.086l0.191,0.088l0.192,0.089l0.193,0.091l0.193,0.093l0.195,0.095l0.195,0.096l0.197,0.098l0.197,0.1l0.199,0.102l0.199,0.103l0.201,0.106l0.203,0.107l0.203,0.109l0.205,0.111l0.206,0.113l0.208,0.115l0.209,0.117l0.211,0.12l0.212,0.121l0.214,0.123l0.216,0.125l0.217,0.128l0.22,0.129l0.221,0.132l0.223,0.134l0.225,0.136l0.227,0.139l0.229,0.14l0.231,0.143l0.233,0.146l0.235,0.147l0.238,0.15l0.24,0.152l0.243,0.155l0.491,0.317l0.502,0.327l0.513,0.337l0.156,0.104l0.155,0.106l0.155,0.107l0.153,0.109l0.152,0.11l0.15,0.111l0.15,0.113l0.149,0.115l0.147,0.116l0.146,0.117l0.146,0.118l0.144,0.12l0.143,0.121l0.141,0.122l0.141,0.124l0.14,0.125l0.138,0.126l0.138,0.128l0.136,0.129l0.135,0.13l0.134,0.131l0.133,0.133l0.132,0.134l0.13,0.135l0.13,0.136l0.128,0.137l0.128,0.139l0.126,0.14l0.125,0.141l0.124,0.142l0.123,0.143l0.122,0.144l0.121,0.146l0.12,0.146l0.118,0.148l0.118,0.148l0.116,0.15l0.116,0.151l0.114,0.152l0.113,0.153l0.113,0.154l0.111,0.155l0.11,0.156l0.109,0.157l0.108,0.158l0.106,0.159l0.106,0.16l0.105,0.161l0.103,0.162l0.103,0.163l0.102,0.163l0.1,0.165l0.099,0.166l0.099,0.166l0.097,0.167l0.096,0.169l0.096,0.169l0.094,0.17l0.093,0.171l0.092,0.171l0.091,0.173l0.09,0.173l0.089,0.174l0.088,0.175l0.087,0.176l0.086,0.176l0.085,0.177l0.084,0.178l0.083,0.179l0.081,0.18l0.081,0.18l0.08,0.181l0.079,0.181l0.077,0.183l0.077,0.183l0.076,0.184l0.075,0.184l0.073,0.185l0.073,0.186l0.072,0.186l0.071,0.187l0.069,0.188l0.069,0.188l0.068,0.189l0.066,0.189l0.066,0.19l0.065,0.191l0.064,0.191l0.063,0.191l0.061,0.193l0.061,0.192l0.06,0.194l0.059,0.193l0.058,0.195l0.057,0.194l0.056,0.196l0.055,0.195l0.053,0.197l0.054,0.196l0.052,0.197l0.051,0.198l0.05,0.198l0.049,0.198l0.048,0.199l0.047,0.199l0.047,0.2l0.045,0.2l0.044,0.2l0.044,0.201l0.042,0.201l0.042,0.201l0.04,0.202l0.04,0.202l0.039,0.202l0.038,0.203l0.036,0.203l0.036,0.203l0.035,0.203l0.034,0.204l0.033,0.204l0.032,0.205l0.032,0.204l0.03,0.205l0.029,0.205l0.029,0.205l0.027,0.205l0.027,0.205l0.025,0.206l0.025,0.206l0.024,0.206l0.023,0.206l0.022,0.206l0.021,0.207l0.02,0.206l0.019,0.207l0.019,0.206l0.017,0.207l0.017,0.207l0.015,0.207l0.015,0.207l0.014,0.207l0.013,0.207l0.012,0.207l0.011,0.208l0.01,0.207l0.009,0.207l0.009,0.207l0.007,0.207l0.007,0.207l0.006,0.207l0.005,0.207l0.004,0.207l0.003,0.207l0.002,0.207l0.001,0.207l0.001,0.206l-0.001,0.207l-0.001,0.206l-0.002,0.207l-0.003,0.206l-0.004,0.206l-0.005,0.206l-0.005,0.205l-0.007,0.206l-0.007,0.205l-0.008,0.206l-0.01,0.205l-0.009,0.204l-0.011,0.205l-0.012,0.204l-0.012,0.204l-0.014,0.204l-0.014,0.204l-0.015,0.203l-0.016,0.203l-0.017,0.202l-0.018,0.203l-0.018,0.202l-0.02,0.202l-0.02,0.201l-0.021,0.201l-0.022,0.201l-0.023,0.201l-0.023,0.2l-0.025,0.199l-0.025,0.2l-0.026,0.199l-0.027,0.198l-0.028,0.198l-0.028,0.198l-0.03,0.197l-0.03,0.197l-0.031,0.196l-0.032,0.196l-0.032,0.196l-0.034,0.195l-0.034,0.194l-0.036,0.194l-0.036,0.194l-0.037,0.192l-0.037,0.193l-0.039,0.192l-0.039,0.191l-0.04,0.191l-0.041,0.19l-0.042,0.19l-0.042,0.189l-0.044,0.188l-0.044,0.188l-0.045,0.187l-0.046,0.187l-0.046,0.186l-0.048,0.185l-0.048,0.185l-0.049,0.184l-0.05,0.183l-0.05,0.183l-0.052,0.182l-0.052,0.181l-0.053,0.181l-0.054,0.179l-0.054,0.18l-0.056,0.178l-0.056,0.178l-0.057,0.176l-0.058,0.176l-0.058,0.176l-0.06,0.175l-0.06,0.173l-0.061,0.173l-0.061,0.172l-0.063,0.172l-0.063,0.17l-0.064,0.17l-0.065,0.168l-0.066,0.168l-0.066,0.167l-0.067,0.166l-0.068,0.166l-0.069,0.164l-0.069,0.163l-0.071,0.163l-0.071,0.162l-0.072,0.16l-0.072,0.16l-0.074,0.159l-0.074,0.157l-0.075,0.157l-0.075,0.156l-0.077,0.155l-0.077,0.154l-0.078,0.152l-0.079,0.152l-0.079,0.151l-0.081,0.15l-0.081,0.148l-0.11,0.2l-0.112,0.199l-0.114,0.197l-0.114,0.197l-0.115,0.196l-0.116,0.194l-0.118,0.194l-0.119,0.192l-0.12,0.192l-0.121,0.191l-0.122,0.189l-0.123,0.189l-0.124,0.187l-0.125,0.187l-0.127,0.185l-0.127,0.185l-0.129,0.183l-0.129,0.183l-0.131,0.181l-0.131,0.181l-0.133,0.179l-0.134,0.179l-0.135,0.177l-0.135,0.177l-0.137,0.175l-0.138,0.175l-0.139,0.173l-0.14,0.173l-0.14,0.171l-0.142,0.171l-0.143,0.169l-0.144,0.169l-0.144,0.167l-0.146,0.167l-0.147,0.165l-0.147,0.165l-0.149,0.163l-0.149,0.163l-0.15,0.161l-0.152,0.161l-0.152,0.16l-0.153,0.158l-0.154,0.158l-0.155,0.157l-0.156,0.155l-0.156,0.155l-0.158,0.154l-0.158,0.153l-0.16,0.152l-0.16,0.15l-0.161,0.15l-0.162,0.149l-0.162,0.148l-0.164,0.147l-0.164,0.146l-0.165,0.145l-0.166,0.144l-0.167,0.143l-0.168,0.143l-0.168,0.141l-0.169,0.14l-0.17,0.139l-0.171,0.139l-0.171,0.137l-0.173,0.136l-0.173,0.136l-0.174,0.135l-0.174,0.133l-0.175,0.133l-0.177,0.131l-0.176,0.131l-0.178,0.13l-0.178,0.129l-0.179,0.128l-0.18,0.127l-0.18,0.126l-0.181,0.125l-0.182,0.124l-0.182,0.123l-0.183,0.123l-0.184,0.121l-0.184,0.121l-0.185,0.119l-0.186,0.119l-0.186,0.117l-0.187,0.117l-0.188,0.116l-0.188,0.115l-0.189,0.114l-0.19,0.113l-0.19,0.112l-0.19,0.111l-0.192,0.111l-0.192,0.109l-0.192,0.108l-0.193,0.108l-0.194,0.107l-0.194,0.106l-0.195,0.104l-0.195,0.104l-0.196,0.103l-0.196,0.102l-0.197,0.102l-0.198,0.1l-0.198,0.099l-0.198,0.099l-0.199,0.098l-0.2,0.096l-0.2,0.096l-0.2,0.095l-0.201,0.094l-0.202,0.093l-0.202,0.093l-0.202,0.091l-0.203,0.091l-0.204,0.089l-0.204,0.089l-0.204,0.088l-0.205,0.087l-0.205,0.086l-0.205,0.085l-0.206,0.085l-0.207,0.083l-0.207,0.083l-0.207,0.081l-0.208,0.081l-0.208,0.08l-0.208,0.079l-0.209,0.079l-0.209,0.077l-0.21,0.077l-0.21,0.075l-0.21,0.075l-0.211,0.074l-0.211,0.073l-0.211,0.072l-0.212,0.072l-0.212,0.07l-0.212,0.07l-0.213,0.069l-0.213,0.068l-0.213,0.067l-0.213,0.066l-0.214,0.065l-0.215,0.065l-0.214,0.064l-0.215,0.063l-0.215,0.062l-0.215,0.061l-0.215,0.06l-0.216,0.06l-0.216,0.058l-0.216,0.058l-0.217,0.057l-0.216,0.056l-0.217,0.056l-0.218,0.054l-0.217,0.054l-0.218,0.053l-0.217,0.052l-0.218,0.051l-0.218,0.05l-0.219,0.05l-0.218,0.049l-0.219,0.048l-0.219,0.047l-0.219,0.046l-0.219,0.045l-0.219,0.045l-0.22,0.044l-0.219,0.043l-0.22,0.042l-0.22,0.041l-0.22,0.041l-0.22,0.04l-0.22,0.039l-0.22,0.038l-0.221,0.037l-0.22,0.037l-0.221,0.036l-0.22,0.035l-0.221,0.034l-0.221,0.033l-0.221,0.033l-0.22,0.031l-0.221,0.031l-0.221,0.031l-0.221,0.029l-0.221,0.029l-0.221,0.027l-0.221,0.027l-0.221,0.027l-0.222,0.025l-0.221,0.025l-0.221,0.024l-0.221,0.023l-0.221,0.022l-0.221,0.022l-0.221,0.02l-0.221,0.02l-0.221,0.02l-0.221,0.018l-0.22,0.018l-0.221,0.017l-0.221,0.016l-0.221,0.015l-0.22,0.015l-0.221,0.014l-0.22,0.013l-0.22,0.012l-0.221,0.011l-0.22,0.011l-0.439,0.019l-0.44,0.017l-0.439,0.013l-0.438,0.01l-0.438,0.007l-0.437,0.004l-0.436,0.002l-0.435,-0.002l-0.435,-0.005l-0.434,-0.008l-0.433,-0.01l-0.432,-0.014l-0.43,-0.016l-0.43,-0.02l-0.429,-0.022l-0.428,-0.025l-0.426,-0.028l-0.426,-0.031l-0.424,-0.034l-0.422,-0.037l-0.421,-0.039l-0.42,-0.043l-0.328,-0.035l-0.327,-0.037l-0.328,-0.038l-0.327,-0.04l-0.328,-0.042l-0.328,-0.043l-0.328,-0.045l-0.328,-0.047l-0.329,-0.048l-0.328,-0.05l-0.328,-0.051l-0.328,-0.053l-0.329,-0.055l-0.328,-0.057l-0.329,-0.058l-0.328,-0.059l-0.328,-0.061l-0.329,-0.063l-0.328,-0.065l-0.328,-0.066l-0.329,-0.067l-0.328,-0.07l-0.328,-0.07l-0.328,-0.073l-0.328,-0.074l-0.328,-0.075l-0.327,-0.078l-0.328,-0.078l-0.327,-0.081l-0.328,-0.081l-0.327,-0.084l-0.327,-0.085l-0.326,-0.086l-0.327,-0.088l-0.326,-0.09l-0.326,-0.091l-0.326,-0.093l-0.326,-0.094l-0.326,-0.096l-0.325,-0.097l-0.325,-0.099l-0.324,-0.1l-0.325,-0.102l-0.324,-0.104l-0.324,-0.105l-0.323,-0.106l-0.323,-0.108l-0.323,-0.11l-0.323,-0.11l-0.322,-0.113l-0.321,-0.114l-0.322,-0.115l-0.321,-0.117l-0.32,-0.119l-0.321,-0.12l-0.319,-0.121l-0.32,-0.123l-0.318,-0.124l-0.319,-0.126l-0.318,-0.127l-0.317,-0.129l-0.317,-0.13l-0.317,-0.132l-0.316,-0.133l-0.315,-0.134l-0.315,-0.136l-0.314,-0.138l-0.314,-0.139l-0.314,-0.14l-0.312,-0.142l-0.312,-0.143l-0.312,-0.144l-0.311,-0.146l-0.31,-0.148l-0.31,-0.149l-0.309,-0.15l-0.309,-0.152l-0.307,-0.153l-0.308,-0.154l-0.306,-0.156l-0.306,-0.157l-0.305,-0.159l-0.304,-0.16l-0.304,-0.161l-0.303,-0.163l-0.302,-0.164l-0.302,-0.166l-0.3,-0.167l-0.3,-0.168l-0.299,-0.17l-0.299,-0.171l-0.297,-0.172l-0.297,-0.174l-0.296,-0.175l-0.295,-0.177l-0.294,-0.177l-0.294,-0.18l-0.292,-0.18l-0.292,-0.182l-0.291,-0.183l-0.29,-0.185l-0.289,-0.185l-0.288,-0.188l-0.287,-0.188l-0.286,-0.19l-0.285,-0.191l-0.284,-0.192l-0.284,-0.194l-0.282,-0.195l-0.281,-0.196l-0.281,-0.198l-0.279,-0.199l-0.278,-0.2l-0.278,-0.202l-0.276,-0.203l-0.275,-0.204l-0.274,-0.205l-0.273,-0.207l-0.272,-0.207l-0.271,-0.21l-0.27,-0.21l-0.269,-0.212l-0.267,-0.213l-0.266,-0.214l-0.266,-0.215l-0.264,-0.217l-0.263,-0.218l-0.261,-0.219l-0.261,-0.221l-0.259,-0.221l-0.258,-0.223l-0.257,-0.225l-0.256,-0.225l-0.254,-0.226l-0.253,-0.228l-0.252,-0.229l-0.251,-0.231l-0.249,-0.231l-0.248,-0.233l-0.247,-0.234l-0.245,-0.235l-0.244,-0.236l-0.243,-0.237l-0.241,-0.239l-0.24,-0.24l-0.239,-0.241l-0.237,-0.242l-0.236,-0.244l-0.234,-0.244l-0.233,-0.246l-0.232,-0.247l-0.23,-0.248l-0.229,-0.249l-0.227,-0.251l-0.226,-0.251l-0.224,-0.253l-0.223,-0.254l-0.221,-0.255l-0.22,-0.256l-0.218,-0.257l-0.217,-0.259l-0.215,-0.259l-0.214,-0.261l-0.212,-0.262l-0.211,-0.263l-0.208,-0.264l-0.208,-0.265l-0.205,-0.266l-0.204,-0.268l-0.203,-0.268l-0.201,-0.27l-0.199,-0.271l-0.197,-0.272l-0.196,-0.272l-0.194,-0.274l-0.193,-0.276l-0.19,-0.276l-0.19,-0.277l-0.187,-0.278l-0.185,-0.28l-0.184,-0.28l-0.182,-0.282l-0.18,-0.283l-0.179,-0.283l-0.177,-0.285l-0.174,-0.286l-0.174,-0.287l-0.171,-0.288l-0.169,-0.289l-0.168,-0.29l-0.165,-0.291l-0.164,-0.292l-0.162,-0.293l-0.16,-0.294l-0.158,-0.295l-0.157,-0.296l-0.154,-0.297l-0.152,-0.299l-0.151,-0.299l-0.148,-0.3l-0.147,-0.301l-0.144,-0.303l-0.143,-0.303l-0.14,-0.304l-0.139,-0.305l-0.136,-0.307l-0.135,-0.307l-0.132,-0.308l-0.131,-0.309l-0.128,-0.31l-0.126,-0.311l-0.124,-0.312l-0.122,-0.313l-0.12,-0.314l-0.118,-0.315l-0.116,-0.316l-0.114,-0.317l-0.111,-0.318l-0.109,-0.319l-0.107,-0.319l-0.105,-0.321l-0.103,-0.321l-0.1,-0.323l-0.099,-0.323l-0.096,-0.325l-0.093,-0.325l-0.092,-0.326l-0.089,-0.327l-0.087,-0.328l-0.085,-0.329l-0.082,-0.329l-0.08,-0.331l-0.078,-0.332l-0.076,-0.332l-0.073,-0.333l-0.071,-0.335l-0.068,-0.335l-0.066,-0.336l-0.064,-0.336l-0.061,-0.338l-0.059,-0.339l-0.057,-0.339l-0.054,-0.34l-0.051,-0.341l-0.049,-0.342l-0.047,-0.343l-0.044,-0.344l-0.042,-0.344l-0.039,-0.345l-0.037,-0.346l-0.035,-0.347l-0.031,-0.348l-0.03,-0.349l-0.026,-0.349l-0.024,-0.35l-0.022,-0.351l-0.017,-0.313l-0.014,-0.313l-0.013,-0.312l-0.01,-0.312l-0.008,-0.311l-0.005,-0.311l-0.004,-0.311l-0.001,-0.31l0.001,-0.309l0.004,-0.31l0.005,-0.308l0.008,-0.309l0.009,-0.307l0.012,-0.308l0.014,-0.307l0.016,-0.306l0.018,-0.306l0.021,-0.306l0.022,-0.305l0.024,-0.305l0.026,-0.304l0.029,-0.304l0.03,-0.304l0.032,-0.303l0.035,-0.302l0.036,-0.302l0.038,-0.302l0.04,-0.301l0.042,-0.301l0.044,-0.3l0.046,-0.3l0.048,-0.299l0.05,-0.299l0.051,-0.299l0.053,-0.298l0.055,-0.298l0.057,-0.297l0.059,-0.297l0.06,-0.296l0.062,-0.296l0.064,-0.295l0.066,-0.295l0.067,-0.295l0.069,-0.294l0.071,-0.294l0.072,-0.293l0.074,-0.293l0.076,-0.292l0.077,-0.292l0.079,-0.291l0.08,-0.291l0.082,-0.291l0.084,-0.29l0.085,-0.29l0.087,-0.289l0.088,-0.289l0.09,-0.288l0.091,-0.288l0.093,-0.288l0.094,-0.287l0.096,-0.286l0.097,-0.287l0.098,-0.285l0.1,-0.286l0.102,-0.284l0.102,-0.285l0.104,-0.284l0.106,-0.283l0.106,-0.284l0.108,-0.282l0.11,-0.283l0.111,-0.281l0.111,-0.282l0.114,-0.281l0.114,-0.28l0.116,-0.28l0.117,-0.28l0.118,-0.279l0.119,-0.279l0.121,-0.279l0.121,-0.278l0.123,-0.277l0.124,-0.277l0.125,-0.277l0.126,-0.276l0.128,-0.276l0.128,-0.275l0.13,-0.275l0.13,-0.275l0.132,-0.274l0.132,-0.273l0.134,-0.274l0.134,-0.273l0.136,-0.272l0.136,-0.272l0.138,-0.271l0.138,-0.272l0.139,-0.27l0.141,-0.271l0.141,-0.269l0.142,-0.27l0.143,-0.269l0.143,-0.269l0.145,-0.268l0.145,-0.268l0.146,-0.267l0.147,-0.267l0.148,-0.266l0.149,-0.266l0.149,-0.266l0.15,-0.265l0.151,-0.265l0.151,-0.265l0.153,-0.264l0.153,-0.263l0.153,-0.263l0.154,-0.263l0.155,-0.263l0.312,-0.523l0.314,-0.522l0.316,-0.52l0.318,-0.519l0.321,-0.517l0.176,-0.282l0.178,-0.282l0.179,-0.281l0.179,-0.28l0.18,-0.279l0.181,-0.279l0.182,-0.278l0.183,-0.277l0.184,-0.276l0.185,-0.275l0.186,-0.275l0.186,-0.274l0.188,-0.273l0.188,-0.272l0.189,-0.271l0.19,-0.271l0.191,-0.269l0.192,-0.269l0.192,-0.268l0.194,-0.268l0.194,-0.266l0.196,-0.266l0.196,-0.264l0.197,-0.264l0.198,-0.263l0.198,-0.263l0.2,-0.261l0.2,-0.261l0.201,-0.259l0.202,-0.259l0.203,-0.258l0.204,-0.257l0.205,-0.257l0.205,-0.255l0.206,-0.255l0.208,-0.254l0.207,-0.252l0.209,-0.253l0.21,-0.251l0.21,-0.25l0.211,-0.249l0.213,-0.249l0.212,-0.247l0.214,-0.247l0.215,-0.246l0.215,-0.245l0.216,-0.244l0.217,-0.243l0.218,-0.243l0.218,-0.241l0.22,-0.241l0.22,-0.239l0.221,-0.239l0.222,-0.238l0.222,-0.237l0.223,-0.236l0.225,-0.235l0.225,-0.234l0.225,-0.233l0.227,-0.233l0.227,-0.231l0.228,-0.231l0.229,-0.229l0.229,-0.229l0.231,-0.228l0.231,-0.226l0.232,-0.226l0.232,-0.225l0.234,-0.224l0.234,-0.223l0.235,-0.222l0.236,-0.222l0.236,-0.22l0.237,-0.219l0.238,-0.218l0.239,-0.218l0.24,-0.216l0.24,-0.216l0.241,-0.214l0.241,-0.214l0.243,-0.212l0.243,-0.212l0.244,-0.21l0.245,-0.21l0.245,-0.209l0.246,-0.207l0.247,-0.207l0.247,-0.206l0.249,-0.204l0.249,-0.204l0.249,-0.203l0.251,-0.202l0.251,-0.201l0.252,-0.199l0.252,-0.199l0.253,-0.198l0.254,-0.197l0.255,-0.195l0.255,-0.195l0.256,-0.194l0.257,-0.193l0.258,-0.191l0.258,-0.191l0.259,-0.19l0.259,-0.188l0.26,-0.188l0.261,-0.187l0.262,-0.185l0.262,-0.185l0.263,-0.183l0.263,-0.183l0.265,-0.181l0.265,-0.181l0.265,-0.179l0.266,-0.178l0.267,-0.178l0.268,-0.176l0.268,-0.175l0.269,-0.174l0.27,-0.173l0.27,-0.172l0.271,-0.171l0.271,-0.17l0.272,-0.169l0.273,-0.167l0.274,-0.167l0.274,-0.166l0.275,-0.164l0.275,-0.163l0.276,-0.163l0.276,-0.161l0.278,-0.16l0.278,-0.159l0.278,-0.158l0.279,-0.157l0.28,-0.156l0.28,-0.155l0.281,-0.153l0.282,-0.153l0.282,-0.151l0.283,-0.151l0.284,-0.149l0.284,-0.148l0.284,-0.147l0.285,-0.146l0.286,-0.145l0.287,-0.143l0.287,-0.143l0.287,-0.141l0.289,-0.14l0.288,-0.139l0.29,-0.138l0.29,-0.137l0.29,-0.136l0.292,-0.135l0.291,-0.133l0.293,-0.132l0.293,-0.131l0.293,-0.13l0.294,-0.129l0.295,-0.128l0.295,-0.127l0.295,-0.125l0.297,-0.124l0.297,-0.123l0.297,-0.122l0.298,-0.121l0.298,-0.119l0.299,-0.119l0.3,-0.117l0.3,-0.116l0.301,-0.115l0.301,-0.114l0.302,-0.112l0.302,-0.112l0.303,-0.11l0.303,-0.109l0.304,-0.107l0.305,-0.107l0.305,-0.105l0.305,-0.104l0.306,-0.103l0.307,-0.102l0.307,-0.101l0.307,-0.099l0.308,-0.098l0.309,-0.097l0.309,-0.096l0.31,-0.094l0.31,-0.094l0.31,-0.092l0.312,-0.09l0.311,-0.09l0.312,-0.088l0.313,-0.087l0.313,-0.086l0.314,-0.085l0.314,-0.083l0.314,-0.083l0.315,-0.081l0.316,-0.079l0.316,-0.079l0.316,-0.077l0.317,-0.076l0.318,-0.075l0.318,-0.073l0.318,-0.072l0.319,-0.071l0.319,-0.07l0.32,-0.068l0.32,-0.067l0.321,-0.066l0.321,-0.065l0.321,-0.063l0.322,-0.062l0.323,-0.061l0.323,-0.059l0.323,-0.058l0.324,-0.057l0.324,-0.056l0.325,-0.054l0.325,-0.053l0.326,-0.052l0.326,-0.05l0.326,-0.049l0.327,-0.048l0.327,-0.046l0.328,-0.046l0.328,-0.044l0.329,-0.042l0.329,-0.041l0.329,-0.04l0.33,-0.039l0.33,-0.037l0.331,-0.036l0.331,-0.035l0.331,-0.033l0.332,-0.032l0.332,-0.031l0.333,-0.029l0.333,-0.028l0.333,-0.027l0.334,-0.025l0.334,-0.024l0.334,-0.023l0.335,-0.021l0.336,-0.02l0.335,-0.018l0.336,-0.017l0.337,-0.016l0.337,-0.015l0.337,-0.013l0.337,-0.012l0.338,-0.01l0.339,-0.009l0.338,-0.008l0.963,-0.019l0.969,-0.018l0.973,-0.016l0.979,-0.016l0.983,-0.013l0.988,-0.012l0.993,-0.009l0.997,-0.007l1.001,-0.005l1.005,-0.002l1.008,0l0.505,0.002l0.507,0.002l0.507,0.003l0.508,0.004l0.508,0.004l0.51,0.006l0.51,0.006l0.511,0.007l0.511,0.008l0.512,0.009l0.513,0.01l0.513,0.011l0.514,0.012l0.514,0.014l0.515,0.014l0.515,0.015l0.516,0.016l0.516,0.018l0.517,0.018l0.516,0.02l0.518,0.021l0.517,0.022l0.518,0.023l0.518,0.025l0.519,0.026l0.518,0.027l0.519,0.029l0.519,0.03l0.519,0.031l0.52,0.033l0.519,0.034l0.519,0.035l0.52,0.037l0.519,0.039l0.52,0.04l0.519,0.041l0.52,0.044l0.519,0.044l0.519,0.046l0.519,0.048l0.519,0.05l0.519,0.051l0.518,0.053l0.518,0.055l0.518,0.056l0.518,0.058l0.517,0.06l0.517,0.062l0.517,0.063l0.516,0.065l0.516,0.068l0.515,0.069l0.515,0.071l0.515,0.073l0.514,0.075l0.513,0.077l0.513,0.078l0.512,0.081l0.512,0.083l0.511,0.085l0.51,0.088l0.51,0.089l0.509,0.091l0.508,0.094l0.507,0.096l0.507,0.098l0.505,0.1l0.505,0.103l0.504,0.104l0.504,0.107l0.502,0.11l0.501,0.112l0.5,0.114l0.5,0.116l0.498,0.119l0.497,0.122l0.496,0.124l0.495,0.126l0.494,0.129l0.493,0.131l0.491,0.134l0.491,0.137l0.489,0.139l0.488,0.142l0.486,0.144l0.486,0.147l0.483,0.15l0.242,0.076l0.241,0.076l0.241,0.078l0.24,0.078l0.24,0.078l0.24,0.08l0.239,0.08l0.239,0.081l0.239,0.081l0.238,0.082l0.238,0.083l0.238,0.084l0.237,0.084l0.237,0.085l0.236,0.086l0.236,0.086l0.236,0.087l0.235,0.088l0.235,0.089l0.234,0.089l0.234,0.09l0.234,0.091l0.233,0.092l0.233,0.092l0.232,0.093l0.232,0.094l0.231,0.095l0.231,0.095l0.231,0.096l0.23,0.097l0.23,0.097l0.229,0.099l0.229,0.099l0.229,0.1l0.228,0.101l0.227,0.101l0.227,0.103l0.228,0.103l0.339,0.157l0.339,0.159l0.338,0.162l0.336,0.164l0.336,0.167l0.334,0.169l0.333,0.171l0.332,0.173l0.331,0.176l0.329,0.177l0.329,0.18l0.327,0.181l0.327,0.184l0.325,0.186l0.324,0.187l0.323,0.189l0.322,0.191l0.321,0.193l0.319,0.194l0.319,0.197l0.318,0.197l0.316,0.199l0.316,0.201l0.315,0.202l0.313,0.204l0.313,0.205l0.311,0.206l0.311,0.207l0.309,0.209l0.309,0.21l0.307,0.211l0.307,0.212l0.356,0.249l0.355,0.251l0.353,0.254l0.352,0.255l0.35,0.257l0.348,0.259l0.347,0.261l0.346,0.262l0.345,0.264l0.343,0.266l0.342,0.267l0.341,0.269l0.339,0.269l0.339,0.272l0.338,0.272l0.336,0.273l0.336,0.274l0.335,0.276l0.334,0.276l0.333,0.277l0.333,0.278l0.332,0.278l0.331,0.279l0.331,0.28l0.659,0.56l0.658,0.561l0.657,0.562l0.667,0.572l0.403,0.39l0.394,0.377l0.395,0.375l0.397,0.373l0.398,0.371l0.4,0.369l0.401,0.368l0.403,0.366l0.405,0.364l0.405,0.363l0.407,0.361l0.409,0.359l0.41,0.358l0.411,0.356l0.413,0.354l0.414,0.353l0.415,0.352l0.417,0.35l0.418,0.348l0.419,0.347l0.42,0.346l0.422,0.344l0.422,0.343l0.424,0.341l0.426,0.341l0.426,0.338l0.427,0.338l0.429,0.336l0.429,0.335l0.431,0.334l0.431,0.333l0.433,0.332l0.433,0.33l0.435,0.329l0.435,0.329l0.437,0.327l0.437,0.326l0.439,0.325l0.439,0.324l0.44,0.323l0.441,0.322l0.441,0.322l0.443,0.32l0.443,0.32l0.444,0.318l0.445,0.318l0.445,0.317l0.446,0.316l0.447,0.316l0.448,0.314l0.448,0.314l0.449,0.314l0.449,0.312l0.45,0.312l0.45,0.312l0.451,0.311l0.904,0.62l0.906,0.617l0.907,0.616l0.909,0.615l0.91,0.613l0.912,0.611l0.913,0.61l0.914,0.61l0.914,0.608l0.915,0.608l1.832,1.216l1.833,1.215l1.832,1.217l0.915,0.609l0.915,0.61l0.914,0.612l0.913,0.613l0.912,0.615l0.911,0.616l0.909,0.618l0.908,0.62l0.453,0.311l0.453,0.312l0.452,0.312l0.452,0.313l0.451,0.313l0.451,0.314l0.45,0.315l0.45,0.316l0.449,0.317l0.448,0.317l0.448,0.318l0.447,0.319l0.447,0.32l0.446,0.32l0.445,0.322l0.444,0.322l0.444,0.324l0.442,0.324l0.443,0.326l0.441,0.326l0.44,0.328l0.44,0.328l0.438,0.33l0.438,0.331l1.86,1.411l1.887,1.433l1.911,1.457l0.965,0.736l0.971,0.741l0.975,0.747l0.981,0.752l0.985,0.756l0.99,0.761l0.994,0.766l0.998,0.771l1.003,0.775l1.005,0.779l1.009,0.783l1.012,0.788l1.015,0.791l1.017,0.795l1.02,0.799l1.022,0.803l1.023,0.806l1.025,0.809l1.027,0.813l1.027,0.816l1.029,0.819l1.029,0.822l1.029,0.824l1.03,0.827l1.029,0.83l1.029,0.832l1.028,0.835l1.027,0.837l1.027,0.839l1.024,0.84l1.024,0.843l1.021,0.845l1.019,0.846l1.017,0.847l1.014,0.849l1.011,0.851l1.009,0.851l0.503,0.426l0.502,0.426l0.501,0.427l0.5,0.427l0.499,0.427l0.498,0.427l0.498,0.428l0.496,0.427l0.495,0.428l0.494,0.428l0.493,0.428l0.491,0.428l0.491,0.428l0.489,0.428l0.488,0.428l0.486,0.428l0.486,0.429l0.483,0.428l0.483,0.429l0.481,0.428l0.48,0.428l0.478,0.429l0.477,0.428l0.475,0.428l0.473,0.428l0.472,0.428l0.47,0.428l0.469,0.427l0.467,0.428l0.465,0.427l0.463,0.428l0.462,0.427l0.46,0.427l0.458,0.426l0.456,0.427l0.454,0.426l0.452,0.426l0.45,0.425l0.448,0.426l0.447,0.425l0.444,0.425l0.442,0.424l0.456,0.44l0.455,0.441l0.455,0.442l0.454,0.444l0.454,0.445l0.453,0.447l0.453,0.448l0.452,0.449l0.451,0.451l0.45,0.453l0.45,0.453l0.448,0.456l0.448,0.456l0.447,0.458l0.445,0.46l0.445,0.461l0.444,0.462l0.442,0.464l0.442,0.466l0.44,0.467l0.439,0.468l0.438,0.47l0.437,0.472l0.435,0.472l0.434,0.475l0.432,0.476l0.431,0.477l0.43,0.479l0.427,0.481l0.427,0.482l0.425,0.483l0.423,0.485l0.421,0.487l0.42,0.488l0.418,0.49l0.416,0.491l0.415,0.493l0.412,0.494l0.411,0.496l0.408,0.498l0.407,0.499l0.405,0.501l0.402,0.502l0.401,0.504l0.398,0.505l0.396,0.507l0.394,0.509l0.392,0.511l0.389,0.511l0.387,0.514l0.385,0.515l0.382,0.517l0.38,0.519l0.377,0.52l0.188,0.261l0.187,0.261l0.186,0.261l0.186,0.262l0.185,0.263l0.184,0.262l0.184,0.264l0.183,0.263l0.183,0.264l0.181,0.265l0.182,0.265l0.18,0.265l0.18,0.266l0.179,0.266l0.178,0.266l0.177,0.267l0.177,0.268l0.176,0.267l0.176,0.269l0.175,0.268l0.174,0.27l0.173,0.269l0.172,0.27l0.172,0.27l0.171,0.271l0.17,0.271l0.17,0.272l0.169,0.272l0.168,0.273l0.167,0.273l0.166,0.273l0.166,0.274l0.165,0.274l0.164,0.275l0.163,0.275l0.162,0.275l0.162,0.276l0.161,0.277l0.16,0.277l0.159,0.277l0.158,0.278l0.158,0.278l0.156,0.279l0.156,0.279l0.155,0.279l0.154,0.28l0.154,0.28l0.152,0.281l0.151,0.282l0.151,0.281l0.15,0.282l0.149,0.283l0.148,0.283l0.147,0.284l0.146,0.283l0.145,0.285l0.145,0.285l0.143,0.285l0.143,0.286l0.141,0.286l0.141,0.286l0.14,0.288l0.139,0.287l0.138,0.288l0.137,0.288l0.136,0.289l0.135,0.29l0.134,0.289l0.133,0.291l0.132,0.29l0.131,0.292l0.131,0.291l0.129,0.292l0.128,0.293l0.127,0.293l0.126,0.293l0.126,0.294l0.124,0.294l0.123,0.295l0.122,0.296l0.121,0.295l0.121,0.297l0.119,0.296l0.118,0.297l0.117,0.298l0.116,0.298l0.115,0.298l0.113,0.299l0.113,0.3l0.112,0.3l0.11,0.3l0.11,0.301l0.108,0.301l0.108,0.302l0.106,0.302l0.105,0.303l0.104,0.303l0.103,0.304l0.102,0.304l0.101,0.305l0.099,0.305l0.099,0.305l0.097,0.306l0.096,0.307l0.095,0.307l0.094,0.307l0.093,0.308l0.092,0.309l0.09,0.309l0.089,0.309l0.088,0.31l0.087,0.31l0.086,0.311l0.085,0.311l0.083,0.312l0.082,0.312l0.081,0.313l0.08,0.313l0.078,0.314l0.078,0.314l0.076,0.315l0.074,0.315l0.074,0.315l0.073,0.316l0.071,0.317l0.07,0.317l0.068,0.318l0.068,0.318l0.066,0.318l0.065,0.319l0.063,0.32l0.062,0.32l0.061,0.32l0.06,0.321l0.059,0.322l0.057,0.322l0.056,0.322l0.054,0.323l0.053,0.323l0.052,0.324l0.051,0.325l0.049,0.325l0.048,0.325l0.047,0.326l0.045,0.326l0.044,0.327l0.042,0.328l0.042,0.327l0.107,0.879l0.106,0.879l0.104,0.879l0.102,0.88l0.1,0.881l0.098,0.88l0.095,0.882l0.093,0.881l0.09,0.882l0.088,0.883l0.084,0.882l0.041,0.442l0.041,0.442l0.039,0.442l0.039,0.441l0.038,0.442l0.037,0.442l0.036,0.442l0.035,0.442l0.035,0.443l0.033,0.442l0.033,0.442l0.032,0.442l0.031,0.443l0.029,0.443l0.029,0.442l0.028,0.443l0.027,0.442l0.026,0.443l0.024,0.443l0.024,0.443l0.023,0.443l0.021,0.443l0.02,0.443l0.02,0.443l0.018,0.443l0.017,0.443l0.015,0.443l0.015,0.444l0.013,0.443l0.012,0.443l0.011,0.444l0.01,0.443l0.008,0.443l0.007,0.444l0.006,0.443l0.004,0.444l0.003,0.443l0.002,0.444l0.001,0.443l-0.001,0.444l-0.003,0.443l-0.004,0.444l-0.005,0.469l-0.008,0.47l-0.008,0.469l-0.011,0.469l-0.012,0.469l-0.013,0.469l-0.015,0.469l-0.016,0.469l-0.017,0.468l-0.019,0.469l-0.021,0.469l-0.021,0.468l-0.023,0.469l-0.025,0.468l-0.025,0.469l-0.027,0.468l-0.028,0.468l-0.029,0.468l-0.03,0.468l-0.032,0.468l-0.032,0.468l-0.034,0.468l-0.035,0.467l-0.036,0.468l-0.037,0.468l-0.037,0.467l-0.039,0.467l-0.04,0.468l-0.041,0.467l-0.041,0.467l-0.043,0.467l-0.043,0.467l-0.044,0.467l-0.046,0.467l-0.045,0.467l-0.047,0.467l-0.095,0.932l-0.098,0.933l-0.101,0.932l-0.103,0.933l-0.105,0.931l-0.108,0.931l-0.109,0.931l-0.111,0.931l-0.112,0.93l-0.114,0.93l-0.114,0.93l-0.116,0.929l-0.232,1.857l-0.199,1.578l-0.201,1.589l-0.102,0.799l-0.104,0.801l-0.105,0.803l-0.106,0.805l-0.109,0.807l-0.11,0.809l-0.113,0.811l-0.116,0.811l-0.118,0.813l-0.121,0.814l-0.062,0.407l-0.062,0.408l-0.064,0.408l-0.064,0.407l-0.065,0.408l-0.066,0.408l-0.067,0.409l-0.068,0.408l-0.069,0.408l-0.07,0.408l-0.071,0.408l-0.072,0.409l-0.073,0.408l-0.075,0.408l-0.075,0.408l-0.077,0.408l-0.078,0.408l-0.079,0.407l-0.08,0.408l-0.082,0.407l-0.083,0.407l-0.084,0.407l-0.086,0.406l-0.087,0.407l-0.088,0.405l-0.09,0.406l-0.091,0.405l-0.093,0.405l-0.095,0.405l-0.096,0.404l-0.097,0.404l-0.099,0.403l-0.101,0.403l-0.102,0.402l-0.104,0.402l-0.106,0.401l-0.108,0.401l-0.109,0.4l-0.111,0.399l-0.113,0.399l-0.114,0.398l-0.117,0.398l-0.118,0.397l-0.121,0.396l-0.122,0.395l-0.124,0.395l-0.127,0.394l-0.128,0.393l-0.13,0.392l-0.133,0.392l-0.134,0.39l-0.137,0.39l-0.139,0.389l-0.141,0.388l-0.143,0.387l-0.145,0.386l-0.148,0.385l-0.15,0.384l-0.152,0.383l-0.155,0.382l-0.157,0.381l-0.159,0.379l-0.162,0.379l-0.164,0.377l-0.167,0.377l-0.169,0.375l-0.172,0.374l-0.174,0.372l-0.177,0.372l-0.18,0.37l-0.182,0.369l-0.185,0.367l-0.187,0.366l-0.095,0.183l-0.096,0.183l-0.096,0.181l-0.097,0.182l-0.097,0.181l-0.098,0.181l-0.099,0.181l-0.1,0.18l-0.1,0.179l-0.101,0.18l-0.102,0.179l-0.102,0.179l-0.103,0.178l-0.104,0.178l-0.105,0.177l-0.105,0.177l-0.106,0.177l-0.107,0.177l-0.108,0.176l-0.108,0.175l-0.109,0.175l-0.11,0.175l-0.11,0.175l-0.112,0.174l-0.112,0.173l-0.112,0.174l-0.114,0.172l-0.114,0.173l-0.115,0.171l-0.116,0.172l-0.117,0.171l-0.117,0.171l-0.119,0.17l-0.119,0.17l-0.119,0.169l-0.121,0.169l-0.121,0.169l-0.123,0.168l-0.123,0.167l-0.123,0.167l-0.125,0.167l-0.125,0.166l-0.127,0.166l-0.127,0.165l-0.127,0.165l-0.129,0.165l-0.13,0.163l-0.13,0.164l-0.131,0.163l-0.132,0.162l-0.133,0.162l-0.134,0.162l-0.134,0.161l-0.136,0.16l-0.133,0.157l-0.134,0.156l-0.135,0.155l-0.135,0.155l-0.136,0.155l-0.136,0.153l-0.137,0.153l-0.138,0.153l-0.139,0.152l-0.139,0.152l-0.139,0.15l-0.14,0.151l-0.141,0.15l-0.142,0.149l-0.142,0.148l-0.143,0.148l-0.143,0.148l-0.144,0.147l-0.144,0.146l-0.145,0.146l-0.146,0.146l-0.146,0.144l-0.147,0.145l-0.147,0.143l-0.148,0.143l-0.148,0.143l-0.149,0.142l-0.15,0.142l-0.15,0.141l-0.151,0.14l-0.151,0.14l-0.152,0.14l-0.305,0.276l-0.307,0.275l-0.309,0.274l-0.312,0.27l-0.313,0.269l-0.316,0.267l-0.317,0.265l-0.32,0.262l-0.321,0.261l-0.323,0.259l-0.325,0.256l-0.327,0.255l-0.329,0.253l-0.331,0.25l-0.332,0.249l-0.334,0.247l-0.336,0.245l-0.337,0.243l-0.339,0.241l-0.341,0.239l-0.343,0.238l-0.343,0.235l-0.346,0.234l-0.347,0.232l-0.348,0.23l-0.35,0.228l-0.351,0.226l-0.353,0.225l-0.354,0.223l-0.355,0.221l-0.357,0.219l-0.358,0.218l-0.359,0.216l-0.36,0.214l-0.362,0.213l-0.363,0.211l-0.364,0.209l-0.365,0.207l-0.366,0.206l-0.367,0.205l-0.368,0.202l-0.37,0.201l-0.37,0.2l-0.371,0.198l-0.372,0.196l-0.373,0.195l-0.374,0.193l-0.375,0.192l-0.375,0.19l-0.377,0.189l-0.377,0.187l-0.377,0.185l-0.379,0.185l-0.379,0.182l-0.38,0.182l-0.38,0.18l-0.381,0.178l-0.382,0.177l-0.382,0.176l-0.383,0.174l-0.383,0.173l-0.383,0.172l-0.384,0.17l-0.385,0.169l-0.385,0.168l-0.385,0.166l-0.385,0.165l-0.386,0.164l-0.386,0.163l-0.386,0.161l-0.386,0.16l-0.387,0.159l-0.387,0.157l-0.386,0.157l-0.387,0.155l-0.387,0.154l-0.387,0.152l-0.387,0.152l-0.387,0.151l-0.387,0.149l-0.387,0.148l-0.387,0.147l-0.387,0.147l-0.386,0.145l-0.387,0.143l-0.386,0.143l-0.386,0.142l-0.385,0.141l-0.386,0.14l-0.385,0.138l-0.384,0.138l-0.385,0.137l-0.383,0.136l-0.384,0.135l-0.765,0.267l-0.764,0.263l-0.761,0.259l-0.759,0.256l-0.755,0.253l-0.753,0.25l-0.75,0.246l-0.747,0.243l-0.742,0.24l-0.801,0.257l-0.801,0.253l-0.802,0.251l-0.802,0.248l-0.803,0.245l-0.803,0.242l-0.804,0.24l-0.804,0.237l-0.805,0.234l-0.805,0.231l-0.806,0.229l-0.806,0.226l-0.807,0.224l-0.807,0.221l-0.808,0.218l-0.808,0.216l-0.809,0.214l-0.809,0.21l-0.81,0.209l-0.81,0.205l-0.81,0.204l-0.811,0.2l-0.812,0.199l-0.812,0.196l-0.812,0.194l-0.813,0.191l-0.813,0.189l-0.814,0.187l-0.814,0.184l-0.814,0.182l-0.815,0.18l-0.816,0.177l-0.815,0.176l-0.817,0.173l-0.816,0.171l-0.817,0.169l-0.818,0.166l-0.817,0.165l-0.818,0.163l-0.819,0.16l-0.819,0.158l-0.819,0.157l-0.82,0.154l-0.82,0.152l-0.82,0.151l-0.821,0.148l-0.821,0.147l-0.822,0.144l-0.821,0.143l-0.823,0.141l-0.822,0.139l-0.823,0.137l-0.823,0.135l-0.824,0.134l-0.823,0.131l-0.825,0.13l-0.824,0.129l-0.825,0.126l-0.825,0.125l-0.826,0.123l-0.825,0.122l-0.826,0.12l-0.827,0.118l-0.826,0.117l-0.827,0.115l-0.827,0.114l-0.828,0.112l-0.828,0.111l-0.828,0.109l-0.828,0.108l-0.828,0.106l-0.829,0.105l-0.829,0.103l-0.83,0.102l-0.829,0.101l-0.83,0.099l-0.83,0.098l-0.831,0.097l-0.83,0.096l-0.831,0.094l-0.831,0.093l-0.831,0.092l-0.832,0.09l-0.831,0.089l-0.832,0.089l-0.832,0.087l-0.833,0.086l-0.832,0.085l-0.833,0.083l-0.833,0.083l-0.833,0.082l-0.833,0.081l-0.834,0.079l-0.833,0.079l-0.834,0.078l-0.834,0.077l-0.834,0.076l-0.835,0.075l-0.834,0.074l-0.835,0.073l-0.835,0.073l-0.835,0.071l-0.835,0.071l-0.835,0.07l-1.671,0.138l-1.671,0.136l-1.672,0.132l-1.672,0.13l-1.673,0.128l-1.673,0.125l-1.674,0.124l-1.674,0.121l-1.674,0.12l-1.675,0.119l-1.674,0.117l-1.675,0.115l-1.675,0.115l-1.676,0.114l-3.351,0.226l-6.702,0.448l-3.351,0.225l-1.675,0.113l-1.675,0.114l-1.675,0.115l-1.675,0.116l-1.675,0.117l-1.674,0.119l-1.674,0.12l-1.674,0.122l-1.673,0.124l-1.673,0.125l-1.672,0.128l-1.672,0.131l-1.672,0.133l-1.671,0.135l-1.67,0.139l-0.835,0.07l-0.835,0.071l-0.835,0.072l-0.835,0.073l-0.834,0.073l-0.834,0.075l-0.834,0.075l-0.834,0.076l-0.834,0.077l-0.834,0.078l-0.833,0.079l-0.833,0.08l-0.833,0.081l-0.833,0.082l-0.833,0.083l-0.832,0.084l-0.832,0.085l-0.832,0.087l-0.832,0.087l-0.832,0.089l-0.831,0.089l-0.831,0.091l-0.831,0.092l-0.831,0.094l-0.83,0.094l-0.83,0.096l-0.83,0.097l-0.83,0.098l-0.83,0.1l-0.829,0.101l-0.829,0.102l-0.829,0.104l-0.828,0.105l-0.828,0.107l-0.828,0.108l-0.828,0.109l-0.827,0.111l-0.827,0.113l-0.827,0.114l-0.826,0.115l-0.827,0.118l-0.825,0.118l-0.826,0.121l-0.825,0.122l-0.825,0.123l-0.825,0.125l-0.824,0.127l-0.824,0.129l-0.824,0.13l-0.823,0.132l-0.823,0.134l-0.823,0.136l-0.822,0.137l-0.822,0.14l-0.822,0.141l-0.821,0.143l-0.821,0.145l-0.821,0.147l-0.82,0.148l-0.82,0.151l-0.82,0.153l-0.819,0.154l-0.818,0.157l-0.819,0.159l-0.818,0.16l-0.817,0.163l-0.818,0.165l-0.816,0.167l-0.817,0.169l-0.816,0.171l-0.815,0.174l-0.816,0.176l-0.814,0.177l-0.815,0.181l-0.814,0.182l-0.813,0.184l-0.813,0.187l-0.813,0.19l-0.675,0.158l-0.678,0.16l-0.679,0.162l-0.681,0.163l-0.684,0.164l-0.685,0.167l-0.686,0.167l-0.689,0.17l-0.69,0.171l-0.691,0.173l-0.692,0.175l-0.694,0.176l-0.696,0.179l-0.696,0.18l-0.697,0.183l-0.698,0.184l-0.699,0.187l-0.7,0.188l-0.7,0.191l-0.702,0.193l-0.701,0.196l-0.702,0.197l-0.703,0.2l-0.703,0.203l-0.703,0.205l-0.703,0.207l-0.703,0.21l-0.703,0.213l-0.703,0.215l-0.702,0.218l-0.703,0.22l-0.702,0.224l-0.701,0.226l-0.701,0.229l-0.35,0.116l-0.35,0.116l-0.35,0.117l-0.35,0.118l-0.35,0.119l-0.349,0.119l-0.349,0.12l-0.349,0.121l-0.348,0.122l-0.349,0.122l-0.348,0.123l-0.348,0.124l-0.347,0.125l-0.348,0.126l-0.346,0.126l-0.347,0.127l-0.346,0.129l-0.346,0.128l-0.346,0.13l-0.345,0.131l-0.345,0.131l-0.345,0.132l-0.344,0.133l-0.344,0.134l-0.343,0.135l-0.343,0.136l-0.342,0.136l-0.342,0.138l-0.342,0.138l-0.341,0.139l-0.341,0.141l-0.34,0.141l-0.34,0.142l-0.339,0.142l-0.339,0.144l-0.338,0.145l-0.337,0.146l-0.337,0.146l-0.337,0.148l-0.336,0.148l-0.335,0.15l-0.335,0.15l-0.334,0.151l-0.334,0.153l-0.333,0.153l-0.332,0.154l-0.332,0.156l-0.331,0.156l-0.331,0.157l-0.329,0.158l-0.329,0.16l-0.329,0.16l-0.328,0.161l-0.327,0.163l-0.326,0.163l-0.325,0.165l-0.325,0.165l-0.324,0.167l-0.324,0.167l-0.322,0.169l-0.322,0.17l-0.321,0.171l-0.32,0.171l-0.319,0.173l-0.319,0.174l-0.318,0.176l-0.316,0.176l-0.316,0.177l-0.316,0.179l-0.314,0.179l-0.313,0.181l-0.313,0.182l-0.311,0.183l-0.311,0.184l-0.31,0.185l-0.309,0.187l-0.307,0.187l-0.307,0.189l-0.306,0.19l-0.305,0.191l-0.304,0.192l-0.303,0.194l-0.302,0.195l-0.301,0.195l-0.3,0.197l-0.299,0.199l-0.298,0.199l-0.297,0.201l-0.295,0.202l-0.295,0.203l-0.293,0.204l-0.293,0.206l-0.291,0.207l-0.291,0.208l-0.289,0.209l-0.288,0.211l-0.286,0.212l-0.286,0.213l-0.284,0.215l-0.284,0.216l-0.282,0.217l-0.281,0.218l-0.279,0.22l-0.279,0.221l-0.277,0.222l-0.276,0.224l-0.275,0.225l-0.273,0.226l-0.273,0.228l-0.271,0.228l-0.269,0.231l-0.269,0.231l-0.267,0.233l-0.265,0.235l-0.265,0.236l-0.263,0.237l-0.261,0.238l-0.261,0.24l-0.259,0.242l-0.257,0.242l-0.256,0.244l-0.255,0.246l-0.253,0.247l-0.252,0.248l-0.251,0.25l-0.249,0.251l-0.247,0.253l-0.247,0.254l-0.244,0.256l-0.243,0.257l-0.242,0.258l-0.24,0.26l-0.239,0.262l-0.237,0.262l-0.236,0.265l-0.234,0.266l-0.232,0.267l-0.231,0.269l-0.23,0.271l-0.227,0.271l-0.227,0.274l-0.224,0.275l-0.223,0.276l-0.222,0.278l-0.219,0.28l-0.219,0.281l-0.216,0.283l-0.215,0.284l-0.213,0.286l-0.211,0.288l-0.21,0.288l-0.208,0.291l-0.206,0.292l-0.205,0.294l-0.203,0.295l-0.201,0.297l-0.199,0.299l-0.198,0.3l-0.196,0.302l-0.194,0.304l-0.192,0.305l-0.191,0.307l-0.188,0.308l-0.187,0.31l-0.185,0.312l-0.183,0.313l-0.182,0.316l-0.179,0.316l-0.178,0.319l-0.175,0.32l-0.174,0.322l-0.172,0.324l-0.17,0.325l-0.168,0.327l-0.166,0.329l-0.165,0.33l-0.162,0.332l-0.16,0.334l-0.158,0.336l-0.157,0.338l-0.154,0.339l-0.152,0.341l-0.151,0.343l-0.148,0.344l-0.146,0.347l-0.145,0.348l-0.142,0.35l-0.14,0.351l-0.083,0.216l-0.081,0.216l-0.078,0.216l-0.075,0.217l-0.073,0.218l-0.07,0.218l-0.067,0.219l-0.065,0.219l-0.062,0.22l-0.06,0.22l-0.058,0.221l-0.055,0.221l-0.052,0.222l-0.05,0.223l-0.048,0.223l-0.045,0.223l-0.044,0.224l-0.04,0.224l-0.039,0.225l-0.036,0.225l-0.035,0.226l-0.032,0.226l-0.029,0.227l-0.028,0.227l-0.026,0.227l-0.023,0.228l-0.022,0.229l-0.02,0.228l-0.017,0.229l-0.016,0.23l-0.014,0.229l-0.012,0.231l-0.01,0.23l-0.008,0.231l-0.006,0.231l-0.005,0.231l-0.002,0.232l-0.002,0.232l0.001,0.232l0.002,0.233l0.004,0.233l0.006,0.233l0.007,0.233l0.008,0.234l0.011,0.234l0.011,0.234l0.013,0.234l0.015,0.234l0.016,0.235l0.017,0.235l0.019,0.235l0.02,0.235l0.021,0.235l0.023,0.235l0.024,0.236l0.025,0.235l0.026,0.236l0.028,0.236l0.028,0.236l0.03,0.236l0.031,0.236l0.032,0.236l0.032,0.236l0.034,0.236l0.035,0.236l0.036,0.236l0.036,0.236l0.038,0.236l0.038,0.236l0.039,0.236l0.04,0.236l0.04,0.236l0.084,0.472l0.086,0.471l0.088,0.471l0.091,0.47l0.093,0.47l0.094,0.469l0.096,0.469l0.097,0.467l0.098,0.467l0.099,0.465l0.2,0.929l0.2,0.923l0.198,0.917l0.098,0.457l0.097,0.455l0.095,0.453l0.094,0.452l0.093,0.449l0.09,0.448l0.088,0.446l0.085,0.444l0.083,0.442l0.08,0.439l0.076,0.437l0.037,0.218l0.036,0.217l0.106,0.65l0.11,0.686l0.115,0.721l0.119,0.756l0.123,0.789l0.127,0.821l0.131,0.852l0.135,0.882l0.281,1.846l0.294,1.951l0.307,2.046l0.318,2.131l0.667,4.48l0.701,4.706l0.361,2.414l0.366,2.443l0.37,2.461l0.374,2.469l0.376,2.47l0.188,1.232l0.189,1.227l0.189,1.223l0.189,1.217l0.189,1.21l0.188,1.201l0.188,1.192l0.187,1.18l0.187,1.169l0.185,1.155l0.185,1.141l0.184,1.125l0.182,1.109l0.181,1.09l0.18,1.071l0.178,1.051l0.177,1.029l0.174,1.007l0.173,0.982l0.17,0.957l0.168,0.931l0.166,0.903l0.163,0.875l0.081,0.425l0.079,0.419l0.08,0.41l0.078,0.402l0.078,0.395l0.077,0.386l0.076,0.378l0.076,0.369l0.075,0.36l0.073,0.352l0.074,0.342l0.072,0.333l0.071,0.324l0.071,0.315l0.004,0.2l-0.071,0.186l-0.138,0.145l-0.183,0.08l-0.199,0.005l-0.187,-0.072l-0.144,-0.137l-0.081,-0.183l-0.071,-0.317l-0.072,-0.327l-0.073,-0.337l-0.074,-0.345l-0.074,-0.355l-0.076,-0.363l-0.076,-0.371l-0.076,-0.381l-0.078,-0.388l-0.078,-0.396l-0.079,-0.405l-0.08,-0.412l-0.08,-0.421l-0.081,-0.427l-0.164,-0.878l-0.166,-0.906l-0.169,-0.933l-0.17,-0.96l-0.173,-0.984l-0.175,-1.009l-0.177,-1.031l-0.178,-1.053l-0.18,-1.072l-0.181,-1.092l-0.183,-1.11l-0.184,-1.127l-0.185,-1.142l-0.186,-1.156l-0.187,-1.17l-0.187,-1.182l-0.188,-1.192l-0.189,-1.202l-0.188,-1.21l-0.189,-1.218l-0.189,-1.224l-0.189,-1.228l-0.189,-1.232l-0.376,-2.471l-0.374,-2.471l-0.37,-2.461l-0.367,-2.443l-0.36,-2.415l-0.701,-4.707l-0.667,-4.479l-0.318,-2.13l-0.307,-2.045l-0.294,-1.951l-0.28,-1.845l-0.135,-0.881l-0.131,-0.851l-0.127,-0.819l-0.123,-0.788l-0.119,-0.755l-0.114,-0.72l-0.11,-0.684l-0.106,-0.647l-0.035,-0.213l-0.037,-0.214l-0.075,-0.431l-0.079,-0.434l-0.081,-0.436l-0.085,-0.439l-0.087,-0.442l-0.089,-0.444l-0.092,-0.446l-0.093,-0.449l-0.095,-0.451l-0.097,-0.453l-0.098,-0.455l-0.198,-0.917l-0.2,-0.924l-0.2,-0.93l-0.099,-0.467l-0.099,-0.469l-0.097,-0.471l-0.097,-0.471l-0.095,-0.473l-0.094,-0.474l-0.091,-0.475l-0.09,-0.475l-0.087,-0.477l-0.084,-0.477l-0.041,-0.24l-0.041,-0.239l-0.039,-0.239l-0.039,-0.24l-0.038,-0.24l-0.037,-0.239l-0.036,-0.24l-0.036,-0.24l-0.034,-0.24l-0.033,-0.241l-0.033,-0.24l-0.031,-0.24l-0.03,-0.241l-0.03,-0.24l-0.028,-0.241l-0.026,-0.241l-0.026,-0.24l-0.024,-0.241l-0.024,-0.241l-0.021,-0.24l-0.021,-0.241l-0.019,-0.241l-0.018,-0.24l-0.016,-0.241l-0.015,-0.241l-0.014,-0.24l-0.012,-0.241l-0.01,-0.24l-0.009,-0.24l-0.007,-0.24l-0.006,-0.24l-0.004,-0.24l-0.002,-0.24l-0.001,-0.24l0.001,-0.24l0.003,-0.239l0.005,-0.239l0.006,-0.239l0.009,-0.239l0.01,-0.239l0.012,-0.238l0.015,-0.239l0.016,-0.238l0.018,-0.238l0.021,-0.237l0.022,-0.238l0.025,-0.237l0.026,-0.236l0.029,-0.237l0.031,-0.236l0.034,-0.236l0.035,-0.236l0.038,-0.235l0.041,-0.235l0.042,-0.235l0.046,-0.234l0.047,-0.234l0.05,-0.233l0.053,-0.233l0.055,-0.233l0.057,-0.232l0.061,-0.232l0.062,-0.231l0.066,-0.231l0.068,-0.23l0.071,-0.23l0.074,-0.229l0.076,-0.229l0.079,-0.229l0.082,-0.228l0.085,-0.227l0.088,-0.226l0.143,-0.359l0.144,-0.356l0.147,-0.355l0.149,-0.353l0.151,-0.351l0.154,-0.349l0.155,-0.348l0.157,-0.345l0.159,-0.344l0.162,-0.342l0.163,-0.34l0.165,-0.339l0.168,-0.337l0.169,-0.335l0.171,-0.333l0.173,-0.332l0.176,-0.329l0.177,-0.328l0.179,-0.327l0.181,-0.324l0.182,-0.323l0.185,-0.321l0.187,-0.319l0.188,-0.318l0.191,-0.316l0.192,-0.314l0.194,-0.313l0.196,-0.311l0.198,-0.309l0.199,-0.308l0.202,-0.305l0.203,-0.305l0.205,-0.302l0.206,-0.301l0.209,-0.299l0.21,-0.298l0.212,-0.296l0.213,-0.294l0.216,-0.293l0.217,-0.291l0.218,-0.29l0.221,-0.288l0.222,-0.286l0.224,-0.284l0.225,-0.284l0.227,-0.281l0.229,-0.28l0.23,-0.278l0.232,-0.277l0.233,-0.275l0.235,-0.274l0.237,-0.272l0.238,-0.271l0.24,-0.269l0.241,-0.267l0.243,-0.266l0.244,-0.265l0.246,-0.262l0.247,-0.262l0.249,-0.26l0.25,-0.258l0.252,-0.257l0.253,-0.256l0.255,-0.254l0.256,-0.252l0.258,-0.251l0.259,-0.25l0.26,-0.248l0.262,-0.246l0.263,-0.245l0.264,-0.244l0.266,-0.243l0.267,-0.24l0.269,-0.24l0.269,-0.238l0.272,-0.236l0.272,-0.236l0.274,-0.234l0.275,-0.232l0.276,-0.231l0.278,-0.23l0.279,-0.228l0.28,-0.227l0.281,-0.225l0.282,-0.225l0.284,-0.222l0.285,-0.222l0.286,-0.22l0.287,-0.219l0.289,-0.217l0.289,-0.217l0.291,-0.214l0.292,-0.214l0.293,-0.212l0.294,-0.211l0.295,-0.21l0.297,-0.208l0.297,-0.207l0.299,-0.206l0.299,-0.205l0.301,-0.203l0.301,-0.202l0.303,-0.201l0.304,-0.199l0.304,-0.198l0.306,-0.198l0.307,-0.195l0.307,-0.195l0.309,-0.193l0.31,-0.193l0.31,-0.191l0.312,-0.189l0.312,-0.189l0.313,-0.187l0.315,-0.187l0.315,-0.185l0.316,-0.184l0.317,-0.182l0.317,-0.182l0.319,-0.18l0.319,-0.18l0.32,-0.178l0.322,-0.177l0.322,-0.176l0.322,-0.174l0.324,-0.174l0.324,-0.173l0.325,-0.171l0.326,-0.17l0.326,-0.17l0.328,-0.168l0.328,-0.167l0.328,-0.166l0.33,-0.165l0.33,-0.164l0.331,-0.163l0.331,-0.162l0.332,-0.16l0.333,-0.16l0.333,-0.159l0.335,-0.158l0.334,-0.156l0.336,-0.156l0.335,-0.155l0.337,-0.153l0.337,-0.153l0.338,-0.152l0.338,-0.15l0.339,-0.15l0.339,-0.149l0.34,-0.148l0.34,-0.146l0.341,-0.146l0.342,-0.145l0.341,-0.144l0.343,-0.143l0.343,-0.142l0.343,-0.142l0.344,-0.14l0.344,-0.139l0.344,-0.139l0.345,-0.137l0.346,-0.137l0.346,-0.136l0.346,-0.135l0.346,-0.134l0.347,-0.133l0.348,-0.132l0.347,-0.132l0.348,-0.13l0.348,-0.13l0.349,-0.129l0.349,-0.128l0.349,-0.127l0.35,-0.127l0.349,-0.125l0.35,-0.125l0.351,-0.124l0.35,-0.123l0.351,-0.123l0.351,-0.121l0.351,-0.121l0.352,-0.12l0.351,-0.12l0.352,-0.118l0.352,-0.118l0.352,-0.117l0.352,-0.116l0.705,-0.23l0.705,-0.228l0.706,-0.224l0.706,-0.222l0.706,-0.219l0.706,-0.216l0.707,-0.214l0.706,-0.211l0.706,-0.208l0.707,-0.206l0.705,-0.204l0.706,-0.2l0.705,-0.199l0.704,-0.196l0.704,-0.194l0.703,-0.192l0.703,-0.189l0.701,-0.187l0.701,-0.185l0.699,-0.183l0.699,-0.181l0.697,-0.179l0.696,-0.178l0.695,-0.175l0.693,-0.173l0.692,-0.172l0.69,-0.17l0.688,-0.168l0.687,-0.166l0.685,-0.165l0.683,-0.164l0.68,-0.161l0.679,-0.161l0.677,-0.159l0.815,-0.19l0.816,-0.187l0.816,-0.186l0.817,-0.182l0.817,-0.181l0.817,-0.179l0.818,-0.176l0.819,-0.174l0.818,-0.172l0.819,-0.169l0.82,-0.168l0.819,-0.165l0.821,-0.164l0.82,-0.161l0.821,-0.159l0.821,-0.157l0.822,-0.155l0.822,-0.153l0.822,-0.152l0.823,-0.149l0.823,-0.147l0.823,-0.145l0.823,-0.144l0.824,-0.141l0.825,-0.14l0.824,-0.138l0.825,-0.136l0.825,-0.134l0.826,-0.132l0.826,-0.131l0.826,-0.129l0.826,-0.127l0.827,-0.126l0.827,-0.124l0.827,-0.122l0.828,-0.121l0.828,-0.119l0.828,-0.117l0.828,-0.116l0.829,-0.114l0.829,-0.113l0.829,-0.111l0.83,-0.11l0.829,-0.108l0.83,-0.107l0.83,-0.105l0.831,-0.104l0.831,-0.103l0.83,-0.101l0.832,-0.1l0.831,-0.099l0.832,-0.097l0.831,-0.096l0.832,-0.094l0.832,-0.094l0.833,-0.092l0.833,-0.091l0.832,-0.09l0.833,-0.089l0.834,-0.087l0.833,-0.087l0.833,-0.085l0.834,-0.084l0.834,-0.083l0.834,-0.082l0.834,-0.081l0.835,-0.081l0.834,-0.079l0.835,-0.078l0.835,-0.077l0.835,-0.076l0.835,-0.076l0.836,-0.074l0.835,-0.074l0.836,-0.073l0.835,-0.072l0.836,-0.071l0.836,-0.07l1.673,-0.139l1.672,-0.136l1.673,-0.133l1.674,-0.13l1.674,-0.128l1.674,-0.126l1.675,-0.124l1.674,-0.122l1.675,-0.12l1.675,-0.119l1.676,-0.117l1.675,-0.116l1.676,-0.115l1.676,-0.114l1.675,-0.113l3.352,-0.225l6.702,-0.448l3.35,-0.226l1.675,-0.114l1.674,-0.115l1.675,-0.115l1.674,-0.117l1.673,-0.119l1.674,-0.12l1.672,-0.121l1.673,-0.123l1.671,-0.126l1.672,-0.127l1.671,-0.13l1.67,-0.133l1.67,-0.135l1.669,-0.138l0.834,-0.07l0.834,-0.07l0.834,-0.072l0.834,-0.072l0.834,-0.074l0.833,-0.074l0.833,-0.075l0.833,-0.076l0.833,-0.076l0.833,-0.078l0.832,-0.079l0.833,-0.079l0.832,-0.081l0.832,-0.081l0.831,-0.083l0.832,-0.084l0.831,-0.084l0.831,-0.086l0.83,-0.087l0.831,-0.088l0.83,-0.089l0.83,-0.091l0.83,-0.091l0.829,-0.093l0.83,-0.094l0.829,-0.096l0.828,-0.096l0.829,-0.098l0.828,-0.099l0.828,-0.101l0.828,-0.101l0.827,-0.104l0.827,-0.104l0.827,-0.106l0.827,-0.108l0.826,-0.109l0.826,-0.11l0.825,-0.112l0.826,-0.113l0.825,-0.115l0.824,-0.117l0.825,-0.118l0.824,-0.12l0.823,-0.121l0.824,-0.123l0.823,-0.124l0.823,-0.127l0.822,-0.128l0.822,-0.129l0.822,-0.132l0.821,-0.133l0.821,-0.135l0.821,-0.137l0.82,-0.138l0.82,-0.141l0.819,-0.142l0.819,-0.144l0.819,-0.146l0.818,-0.148l0.818,-0.15l0.818,-0.152l0.817,-0.154l0.817,-0.156l0.816,-0.158l0.816,-0.16l0.816,-0.162l0.815,-0.164l0.815,-0.166l0.814,-0.168l0.814,-0.171l0.814,-0.172l0.813,-0.175l0.812,-0.177l0.813,-0.179l0.811,-0.182l0.812,-0.183l0.811,-0.186l0.81,-0.189l0.81,-0.19l0.809,-0.193l0.809,-0.196l0.809,-0.197l0.808,-0.2l0.808,-0.203l0.807,-0.205l0.806,-0.208l0.807,-0.21l0.805,-0.212l0.805,-0.215l0.805,-0.218l0.804,-0.22l0.804,-0.222l0.803,-0.226l0.803,-0.228l0.802,-0.23l0.801,-0.233l0.801,-0.236l0.801,-0.239l0.8,-0.241l0.799,-0.245l0.799,-0.246l0.799,-0.25l0.798,-0.253l0.797,-0.255l0.741,-0.239l0.744,-0.243l0.747,-0.245l0.75,-0.249l0.753,-0.252l0.756,-0.255l0.758,-0.258l0.76,-0.262l0.763,-0.266l0.381,-0.134l0.382,-0.136l0.382,-0.136l0.383,-0.137l0.383,-0.138l0.384,-0.139l0.383,-0.14l0.384,-0.141l0.384,-0.142l0.384,-0.143l0.385,-0.144l0.384,-0.146l0.385,-0.146l0.384,-0.147l0.385,-0.149l0.384,-0.149l0.385,-0.151l0.385,-0.152l0.384,-0.153l0.384,-0.154l0.385,-0.155l0.384,-0.157l0.384,-0.157l0.383,-0.159l0.384,-0.16l0.383,-0.162l0.383,-0.162l0.382,-0.164l0.382,-0.165l0.382,-0.166l0.381,-0.168l0.381,-0.169l0.381,-0.17l0.38,-0.172l0.379,-0.172l0.379,-0.175l0.378,-0.175l0.378,-0.177l0.377,-0.179l0.376,-0.179l0.376,-0.181l0.375,-0.183l0.374,-0.184l0.373,-0.185l0.373,-0.187l0.372,-0.188l0.371,-0.19l0.37,-0.191l0.369,-0.193l0.368,-0.195l0.368,-0.195l0.366,-0.198l0.365,-0.199l0.364,-0.2l0.364,-0.202l0.361,-0.204l0.361,-0.205l0.36,-0.206l0.359,-0.209l0.357,-0.21l0.356,-0.211l0.355,-0.214l0.353,-0.215l0.352,-0.216l0.351,-0.219l0.35,-0.22l0.348,-0.221l0.346,-0.224l0.345,-0.225l0.344,-0.227l0.342,-0.228l0.341,-0.231l0.339,-0.232l0.337,-0.234l0.336,-0.236l0.334,-0.237l0.332,-0.24l0.331,-0.241l0.329,-0.243l0.327,-0.245l0.326,-0.247l0.323,-0.249l0.322,-0.25l0.32,-0.253l0.318,-0.254l0.316,-0.256l0.314,-0.259l0.312,-0.26l0.31,-0.262l0.308,-0.264l0.306,-0.266l0.304,-0.268l0.302,-0.271l0.3,-0.272l0.148,-0.137l0.149,-0.137l0.148,-0.138l0.147,-0.138l0.147,-0.139l0.146,-0.139l0.146,-0.14l0.145,-0.141l0.144,-0.141l0.144,-0.141l0.144,-0.142l0.142,-0.143l0.143,-0.143l0.141,-0.143l0.141,-0.145l0.141,-0.144l0.14,-0.145l0.139,-0.146l0.139,-0.146l0.138,-0.147l0.137,-0.147l0.137,-0.148l0.136,-0.148l0.136,-0.149l0.134,-0.15l0.135,-0.15l0.133,-0.15l0.133,-0.151l0.133,-0.152l0.132,-0.152l0.131,-0.153l0.13,-0.153l0.133,-0.157l0.131,-0.158l0.131,-0.158l0.13,-0.158l0.129,-0.159l0.128,-0.159l0.128,-0.16l0.126,-0.16l0.126,-0.161l0.125,-0.161l0.125,-0.162l0.123,-0.162l0.123,-0.163l0.122,-0.163l0.121,-0.163l0.12,-0.164l0.12,-0.165l0.118,-0.164l0.118,-0.166l0.118,-0.165l0.116,-0.167l0.116,-0.166l0.115,-0.167l0.114,-0.168l0.113,-0.168l0.113,-0.168l0.112,-0.169l0.111,-0.169l0.111,-0.169l0.109,-0.171l0.109,-0.17l0.109,-0.171l0.107,-0.171l0.107,-0.172l0.106,-0.172l0.105,-0.172l0.105,-0.173l0.104,-0.173l0.103,-0.174l0.103,-0.174l0.102,-0.174l0.101,-0.175l0.1,-0.175l0.1,-0.176l0.099,-0.176l0.099,-0.176l0.097,-0.177l0.097,-0.177l0.097,-0.178l0.095,-0.177l0.095,-0.178l0.095,-0.179l0.093,-0.179l0.093,-0.179l0.184,-0.36l0.182,-0.361l0.179,-0.362l0.176,-0.363l0.174,-0.365l0.171,-0.367l0.169,-0.367l0.166,-0.369l0.165,-0.37l0.161,-0.371l0.159,-0.373l0.157,-0.374l0.155,-0.374l0.152,-0.376l0.15,-0.377l0.148,-0.379l0.145,-0.379l0.143,-0.38l0.142,-0.381l0.138,-0.383l0.137,-0.383l0.135,-0.384l0.133,-0.386l0.13,-0.386l0.129,-0.387l0.127,-0.388l0.124,-0.389l0.123,-0.39l0.121,-0.39l0.119,-0.391l0.117,-0.392l0.115,-0.393l0.113,-0.394l0.112,-0.394l0.109,-0.395l0.109,-0.396l0.106,-0.396l0.104,-0.397l0.103,-0.398l0.102,-0.398l0.099,-0.398l0.099,-0.4l0.096,-0.399l0.095,-0.401l0.094,-0.4l0.092,-0.402l0.09,-0.401l0.089,-0.402l0.088,-0.403l0.086,-0.402l0.085,-0.404l0.084,-0.403l0.082,-0.404l0.081,-0.404l0.08,-0.404l0.078,-0.405l0.078,-0.405l0.076,-0.405l0.075,-0.405l0.074,-0.405l0.072,-0.406l0.072,-0.405l0.071,-0.406l0.069,-0.406l0.069,-0.406l0.067,-0.405l0.067,-0.406l0.066,-0.406l0.064,-0.406l0.064,-0.406l0.063,-0.405l0.063,-0.406l0.061,-0.405l0.121,-0.811l0.117,-0.809l0.115,-0.809l0.113,-0.808l0.11,-0.806l0.108,-0.805l0.107,-0.803l0.104,-0.802l0.103,-0.8l0.102,-0.797l0.202,-1.589l0.198,-1.577l0.233,-1.856l0.115,-0.928l0.115,-0.929l0.113,-0.928l0.112,-0.929l0.111,-0.929l0.109,-0.929l0.107,-0.929l0.105,-0.929l0.103,-0.93l0.1,-0.929l0.098,-0.93l0.095,-0.93l0.046,-0.465l0.046,-0.465l0.045,-0.465l0.044,-0.465l0.043,-0.466l0.042,-0.465l0.042,-0.465l0.04,-0.465l0.04,-0.465l0.039,-0.466l0.037,-0.465l0.037,-0.465l0.036,-0.466l0.034,-0.465l0.034,-0.465l0.032,-0.466l0.031,-0.465l0.031,-0.466l0.029,-0.465l0.027,-0.466l0.027,-0.465l0.025,-0.466l0.025,-0.466l0.022,-0.465l0.022,-0.466l0.02,-0.466l0.019,-0.465l0.017,-0.466l0.016,-0.466l0.015,-0.466l0.013,-0.465l0.012,-0.466l0.01,-0.466l0.009,-0.466l0.007,-0.466l0.006,-0.466l0.004,-0.44l0.002,-0.44l0.001,-0.44l0,-0.441l-0.002,-0.44l-0.003,-0.441l-0.004,-0.44l-0.006,-0.44l-0.007,-0.441l-0.008,-0.44l-0.01,-0.441l-0.011,-0.44l-0.012,-0.441l-0.013,-0.44l-0.014,-0.441l-0.016,-0.44l-0.017,-0.44l-0.018,-0.441l-0.019,-0.44l-0.02,-0.441l-0.022,-0.44l-0.022,-0.441l-0.024,-0.44l-0.024,-0.44l-0.026,-0.441l-0.026,-0.44l-0.028,-0.441l-0.029,-0.44l-0.029,-0.44l-0.031,-0.44l-0.032,-0.441l-0.032,-0.44l-0.034,-0.44l-0.034,-0.44l-0.035,-0.44l-0.036,-0.44l-0.037,-0.44l-0.038,-0.44l-0.038,-0.44l-0.04,-0.44l-0.04,-0.44l-0.041,-0.439l-0.084,-0.88l-0.087,-0.879l-0.09,-0.879l-0.092,-0.879l-0.095,-0.878l-0.098,-0.878l-0.099,-0.878l-0.102,-0.878l-0.104,-0.877l-0.106,-0.877l-0.107,-0.876l-0.041,-0.324l-0.042,-0.323l-0.043,-0.322l-0.045,-0.322l-0.046,-0.322l-0.047,-0.321l-0.049,-0.321l-0.05,-0.32l-0.051,-0.32l-0.052,-0.319l-0.054,-0.318l-0.055,-0.319l-0.057,-0.317l-0.057,-0.318l-0.059,-0.316l-0.061,-0.317l-0.061,-0.316l-0.063,-0.315l-0.064,-0.315l-0.065,-0.314l-0.067,-0.314l-0.067,-0.314l-0.069,-0.313l-0.071,-0.312l-0.071,-0.312l-0.073,-0.312l-0.074,-0.311l-0.075,-0.31l-0.076,-0.311l-0.078,-0.309l-0.078,-0.31l-0.08,-0.308l-0.081,-0.309l-0.083,-0.307l-0.083,-0.308l-0.085,-0.307l-0.086,-0.306l-0.087,-0.306l-0.088,-0.306l-0.089,-0.305l-0.09,-0.304l-0.092,-0.305l-0.093,-0.303l-0.094,-0.303l-0.095,-0.303l-0.096,-0.303l-0.097,-0.301l-0.099,-0.302l-0.099,-0.301l-0.101,-0.3l-0.101,-0.3l-0.103,-0.3l-0.104,-0.299l-0.105,-0.299l-0.106,-0.298l-0.107,-0.298l-0.109,-0.297l-0.109,-0.297l-0.11,-0.296l-0.112,-0.296l-0.112,-0.296l-0.114,-0.295l-0.115,-0.294l-0.115,-0.295l-0.117,-0.293l-0.118,-0.294l-0.118,-0.292l-0.12,-0.293l-0.121,-0.292l-0.122,-0.291l-0.123,-0.291l-0.123,-0.291l-0.125,-0.29l-0.126,-0.29l-0.127,-0.289l-0.128,-0.289l-0.128,-0.289l-0.13,-0.288l-0.131,-0.287l-0.132,-0.287l-0.132,-0.287l-0.134,-0.286l-0.134,-0.286l-0.136,-0.285l-0.136,-0.285l-0.138,-0.285l-0.138,-0.284l-0.139,-0.284l-0.141,-0.283l-0.141,-0.283l-0.142,-0.282l-0.143,-0.282l-0.144,-0.281l-0.144,-0.281l-0.146,-0.281l-0.146,-0.28l-0.148,-0.28l-0.148,-0.279l-0.149,-0.279l-0.15,-0.279l-0.151,-0.278l-0.152,-0.278l-0.153,-0.277l-0.153,-0.277l-0.154,-0.276l-0.156,-0.276l-0.156,-0.276l-0.156,-0.275l-0.158,-0.274l-0.159,-0.275l-0.159,-0.274l-0.16,-0.273l-0.161,-0.273l-0.162,-0.273l-0.162,-0.272l-0.164,-0.272l-0.164,-0.271l-0.165,-0.271l-0.165,-0.271l-0.167,-0.27l-0.167,-0.269l-0.168,-0.27l-0.169,-0.269l-0.169,-0.268l-0.171,-0.268l-0.171,-0.268l-0.172,-0.267l-0.172,-0.267l-0.173,-0.266l-0.174,-0.266l-0.175,-0.266l-0.175,-0.265l-0.177,-0.265l-0.176,-0.264l-0.178,-0.264l-0.178,-0.264l-0.179,-0.263l-0.18,-0.263l-0.18,-0.262l-0.181,-0.262l-0.182,-0.261l-0.182,-0.262l-0.183,-0.26l-0.184,-0.261l-0.184,-0.26l-0.185,-0.259l-0.186,-0.259l-0.186,-0.259l-0.374,-0.516l-0.377,-0.515l-0.38,-0.513l-0.382,-0.512l-0.384,-0.51l-0.387,-0.508l-0.389,-0.507l-0.391,-0.505l-0.393,-0.504l-0.396,-0.502l-0.398,-0.501l-0.4,-0.499l-0.402,-0.497l-0.404,-0.496l-0.406,-0.495l-0.408,-0.493l-0.41,-0.491l-0.412,-0.49l-0.414,-0.488l-0.415,-0.487l-0.418,-0.486l-0.419,-0.483l-0.42,-0.483l-0.423,-0.481l-0.424,-0.479l-0.426,-0.478l-0.427,-0.476l-0.429,-0.475l-0.43,-0.474l-0.431,-0.472l-0.433,-0.47l-0.435,-0.469l-0.436,-0.468l-0.437,-0.466l-0.438,-0.465l-0.439,-0.463l-0.441,-0.462l-0.441,-0.46l-0.443,-0.46l-0.444,-0.457l-0.445,-0.456l-0.446,-0.455l-0.446,-0.453l-0.448,-0.452l-0.449,-0.451l-0.449,-0.449l-0.45,-0.448l-0.451,-0.446l-0.451,-0.445l-0.453,-0.444l-0.452,-0.442l-0.454,-0.441l-0.454,-0.439l-0.454,-0.438l-0.441,-0.423l-0.442,-0.424l-0.445,-0.423l-0.447,-0.425l-0.448,-0.424l-0.451,-0.424l-0.453,-0.425l-0.455,-0.425l-0.456,-0.426l-0.459,-0.426l-0.46,-0.425l-0.462,-0.426l-0.464,-0.427l-0.466,-0.426l-0.467,-0.427l-0.469,-0.427l-0.471,-0.426l-0.472,-0.427l-0.474,-0.427l-0.476,-0.428l-0.477,-0.427l-0.478,-0.427l-0.48,-0.428l-0.481,-0.427l-0.483,-0.427l-0.484,-0.428l-0.486,-0.427l-0.487,-0.427l-0.488,-0.428l-0.489,-0.427l-0.491,-0.427l-0.492,-0.427l-0.493,-0.427l-0.494,-0.427l-0.495,-0.427l-0.496,-0.426l-0.498,-0.427l-0.498,-0.426l-0.499,-0.426l-0.5,-0.426l-0.501,-0.425l-0.502,-0.426l-1.007,-0.85l-1.01,-0.849l-1.012,-0.847l-1.015,-0.846l-1.018,-0.845l-1.02,-0.843l-1.022,-0.842l-1.023,-0.84l-1.025,-0.837l-1.026,-0.836l-1.027,-0.833l-1.027,-0.832l-1.028,-0.828l-1.028,-0.827l-1.029,-0.823l-1.027,-0.821l-1.028,-0.818l-1.026,-0.815l-1.025,-0.812l-1.025,-0.808l-1.022,-0.806l-1.021,-0.802l-1.019,-0.798l-1.016,-0.794l-1.014,-0.791l-1.011,-0.787l-1.008,-0.783l-1.005,-0.778l-1.001,-0.774l-0.998,-0.77l-0.993,-0.766l-0.99,-0.76l-0.984,-0.756l-0.98,-0.751l-0.975,-0.747l-0.97,-0.741l-0.964,-0.735l-1.911,-1.456l-1.886,-1.433l-1.859,-1.41l-0.436,-0.33l-0.436,-0.328l-0.438,-0.327l-0.438,-0.326l-0.439,-0.325l-0.44,-0.324l-0.441,-0.323l-0.442,-0.322l-0.443,-0.321l-0.443,-0.321l-0.444,-0.319l-0.445,-0.319l-0.445,-0.317l-0.447,-0.317l-0.446,-0.316l-0.448,-0.316l-0.448,-0.314l-0.449,-0.314l-0.449,-0.314l-0.45,-0.312l-0.451,-0.312l-0.451,-0.312l-0.452,-0.31l-0.452,-0.311l-0.905,-0.618l-0.908,-0.617l-0.909,-0.615l-0.91,-0.614l-0.912,-0.612l-0.913,-0.611l-0.913,-0.609l-0.915,-0.609l-1.831,-1.216l-1.832,-1.216l-1.833,-1.215l-0.916,-0.608l-0.915,-0.61l-0.915,-0.61l-0.913,-0.611l-0.913,-0.612l-0.912,-0.614l-0.911,-0.615l-0.909,-0.617l-0.908,-0.62l-0.906,-0.621l-0.452,-0.312l-0.452,-0.312l-0.451,-0.313l-0.451,-0.314l-0.45,-0.314l-0.449,-0.315l-0.449,-0.316l-0.449,-0.316l-0.447,-0.318l-0.447,-0.318l-0.447,-0.319l-0.446,-0.32l-0.445,-0.32l-0.444,-0.322l-0.443,-0.323l-0.443,-0.323l-0.442,-0.325l-0.441,-0.325l-0.44,-0.327l-0.44,-0.327l-0.438,-0.329l-0.438,-0.33l-0.437,-0.331l-0.436,-0.332l-0.435,-0.333l-0.433,-0.335l-0.433,-0.336l-0.432,-0.337l-0.431,-0.338l-0.43,-0.339l-0.429,-0.341l-0.427,-0.343l-0.427,-0.343l-0.425,-0.345l-0.424,-0.347l-0.424,-0.347l-0.421,-0.35l-0.421,-0.351l-0.42,-0.352l-0.418,-0.354l-0.417,-0.355l-0.415,-0.357l-0.414,-0.359l-0.413,-0.36l-0.412,-0.362l-0.41,-0.364l-0.409,-0.365l-0.407,-0.367l-0.406,-0.369l-0.405,-0.371l-0.403,-0.372l-0.401,-0.374l-0.401,-0.376l-0.398,-0.378l-0.397,-0.38l-0.384,-0.37l-0.643,-0.553l-0.656,-0.561l-0.656,-0.56l-0.658,-0.559l-0.329,-0.278l-0.33,-0.278l-0.33,-0.277l-0.331,-0.276l-0.331,-0.275l-0.332,-0.275l-0.333,-0.273l-0.333,-0.272l-0.334,-0.272l-0.335,-0.27l-0.336,-0.268l-0.336,-0.268l-0.338,-0.265l-0.338,-0.265l-0.34,-0.263l-0.341,-0.261l-0.341,-0.259l-0.343,-0.258l-0.345,-0.256l-0.345,-0.254l-0.347,-0.252l-0.348,-0.249l-0.35,-0.248l-0.351,-0.246l-0.303,-0.209l-0.304,-0.209l-0.306,-0.208l-0.306,-0.206l-0.307,-0.205l-0.307,-0.204l-0.309,-0.202l-0.31,-0.201l-0.31,-0.2l-0.312,-0.198l-0.312,-0.196l-0.313,-0.195l-0.314,-0.193l-0.316,-0.192l-0.316,-0.19l-0.317,-0.188l-0.318,-0.186l-0.319,-0.185l-0.32,-0.182l-0.321,-0.181l-0.322,-0.179l-0.323,-0.176l-0.324,-0.175l-0.325,-0.172l-0.326,-0.17l-0.327,-0.168l-0.328,-0.166l-0.329,-0.164l-0.33,-0.161l-0.331,-0.158l-0.332,-0.157l-0.334,-0.154l-0.223,-0.101l-0.223,-0.101l-0.224,-0.1l-0.225,-0.099l-0.225,-0.099l-0.226,-0.097l-0.226,-0.097l-0.226,-0.096l-0.227,-0.096l-0.228,-0.095l-0.227,-0.094l-0.229,-0.093l-0.228,-0.092l-0.229,-0.092l-0.23,-0.091l-0.23,-0.091l-0.23,-0.089l-0.231,-0.089l-0.231,-0.088l-0.232,-0.088l-0.232,-0.087l-0.233,-0.086l-0.232,-0.085l-0.234,-0.084l-0.233,-0.084l-0.234,-0.084l-0.235,-0.082l-0.235,-0.082l-0.235,-0.081l-0.236,-0.08l-0.236,-0.08l-0.236,-0.079l-0.237,-0.079l-0.237,-0.077l-0.237,-0.077l-0.238,-0.077l-0.238,-0.075l-0.239,-0.075l-0.478,-0.148l-0.48,-0.146l-0.481,-0.142l-0.482,-0.14l-0.484,-0.138l-0.485,-0.135l-0.486,-0.133l-0.487,-0.13l-0.489,-0.127l-0.489,-0.125l-0.491,-0.123l-0.492,-0.12l-0.494,-0.118l-0.494,-0.115l-0.495,-0.113l-0.497,-0.111l-0.497,-0.108l-0.498,-0.106l-0.5,-0.104l-0.5,-0.101l-0.501,-0.1l-0.502,-0.097l-0.503,-0.095l-0.504,-0.093l-0.504,-0.09l-0.505,-0.089l-0.506,-0.086l-0.507,-0.085l-0.508,-0.082l-0.508,-0.08l-0.508,-0.079l-0.51,-0.076l-0.51,-0.074l-0.51,-0.073l-0.511,-0.07l-0.512,-0.069l-0.512,-0.067l-0.513,-0.064l-0.513,-0.063l-0.513,-0.062l-0.514,-0.059l-0.514,-0.058l-0.515,-0.056l-0.515,-0.054l-0.515,-0.053l-0.515,-0.05l-0.516,-0.05l-0.515,-0.047l-0.516,-0.046l-0.517,-0.045l-0.516,-0.042l-0.516,-0.042l-0.517,-0.04l-0.516,-0.038l-0.517,-0.037l-0.516,-0.035l-0.517,-0.034l-0.517,-0.032l-0.516,-0.032l-0.516,-0.029l-0.517,-0.029l-0.516,-0.027l-0.515,-0.026l-0.516,-0.024l-0.516,-0.023l-0.515,-0.023l-0.515,-0.02l-0.514,-0.02l-0.515,-0.019l-0.514,-0.017l-0.513,-0.016l-0.513,-0.015l-0.513,-0.014l-0.512,-0.013l-0.512,-0.012l-0.511,-0.011l-0.511,-0.01l-0.51,-0.009l-0.51,-0.009l-0.509,-0.007l-0.508,-0.006l-0.508,-0.005l-0.507,-0.005l-0.506,-0.004l-0.506,-0.003l-0.504,-0.002l-0.504,-0.001l-1.006,-0.001l-1.002,0.002l-0.998,0.005l-0.994,0.007l-0.991,0.01l-0.986,0.011l-0.981,0.014l-0.977,0.015l-0.972,0.016l-0.967,0.018l-0.961,0.02l-0.335,0.007l-0.334,0.009l-0.334,0.01l-0.333,0.012l-0.333,0.013l-0.333,0.014l-0.332,0.016l-0.332,0.017l-0.332,0.018l-0.331,0.02l-0.331,0.021l-0.33,0.022l-0.33,0.024l-0.33,0.025l-0.329,0.026l-0.329,0.028l-0.328,0.029l-0.328,0.03l-0.328,0.031l-0.327,0.033l-0.327,0.035l-0.326,0.035l-0.326,0.037l-0.326,0.038l-0.325,0.039l-0.325,0.041l-0.324,0.042l-0.324,0.043l-0.324,0.045l-0.323,0.046l-0.323,0.047l-0.322,0.049l-0.322,0.049l-0.321,0.052l-0.321,0.052l-0.321,0.053l-0.32,0.055l-0.32,0.056l-0.319,0.058l-0.319,0.059l-0.318,0.06l-0.318,0.061l-0.317,0.062l-0.318,0.064l-0.316,0.065l-0.316,0.066l-0.316,0.068l-0.315,0.069l-0.315,0.069l-0.314,0.072l-0.314,0.072l-0.313,0.074l-0.313,0.075l-0.313,0.076l-0.312,0.078l-0.311,0.078l-0.311,0.08l-0.311,0.081l-0.31,0.083l-0.309,0.083l-0.309,0.085l-0.309,0.086l-0.308,0.087l-0.308,0.089l-0.307,0.089l-0.306,0.091l-0.307,0.092l-0.305,0.094l-0.305,0.094l-0.305,0.096l-0.304,0.097l-0.304,0.098l-0.303,0.099l-0.302,0.1l-0.302,0.102l-0.302,0.103l-0.301,0.104l-0.301,0.105l-0.3,0.106l-0.299,0.108l-0.299,0.109l-0.298,0.11l-0.298,0.111l-0.298,0.112l-0.297,0.113l-0.296,0.115l-0.296,0.115l-0.295,0.117l-0.295,0.118l-0.294,0.12l-0.293,0.12l-0.293,0.121l-0.293,0.123l-0.292,0.124l-0.291,0.125l-0.291,0.126l-0.29,0.127l-0.29,0.128l-0.289,0.13l-0.289,0.131l-0.288,0.131l-0.287,0.133l-0.287,0.134l-0.286,0.135l-0.286,0.137l-0.285,0.137l-0.285,0.138l-0.284,0.14l-0.283,0.141l-0.283,0.141l-0.282,0.143l-0.282,0.144l-0.281,0.145l-0.281,0.147l-0.279,0.147l-0.28,0.148l-0.278,0.15l-0.278,0.151l-0.278,0.151l-0.277,0.153l-0.276,0.154l-0.276,0.155l-0.275,0.156l-0.274,0.157l-0.274,0.158l-0.273,0.159l-0.272,0.161l-0.272,0.161l-0.272,0.163l-0.27,0.163l-0.27,0.165l-0.27,0.165l-0.269,0.167l-0.268,0.168l-0.267,0.168l-0.267,0.17l-0.266,0.171l-0.266,0.172l-0.265,0.173l-0.264,0.174l-0.264,0.175l-0.263,0.176l-0.262,0.177l-0.262,0.179l-0.261,0.179l-0.26,0.18l-0.26,0.181l-0.259,0.183l-0.258,0.183l-0.258,0.184l-0.257,0.186l-0.256,0.186l-0.256,0.187l-0.255,0.189l-0.254,0.189l-0.254,0.19l-0.253,0.192l-0.252,0.192l-0.251,0.194l-0.251,0.194l-0.25,0.195l-0.25,0.197l-0.249,0.197l-0.248,0.198l-0.247,0.2l-0.247,0.2l-0.246,0.201l-0.245,0.203l-0.245,0.203l-0.243,0.204l-0.244,0.205l-0.242,0.206l-0.242,0.208l-0.241,0.208l-0.24,0.209l-0.239,0.21l-0.239,0.211l-0.238,0.212l-0.238,0.213l-0.236,0.213l-0.236,0.215l-0.235,0.216l-0.235,0.216l-0.233,0.218l-0.233,0.219l-0.232,0.219l-0.232,0.221l-0.231,0.221l-0.229,0.222l-0.23,0.223l-0.228,0.225l-0.228,0.225l-0.227,0.226l-0.226,0.226l-0.225,0.228l-0.225,0.229l-0.224,0.23l-0.223,0.23l-0.222,0.232l-0.221,0.232l-0.221,0.233l-0.22,0.234l-0.219,0.236l-0.219,0.236l-0.217,0.236l-0.217,0.238l-0.216,0.239l-0.215,0.239l-0.215,0.241l-0.213,0.241l-0.213,0.242l-0.212,0.243l-0.212,0.244l-0.21,0.245l-0.21,0.246l-0.209,0.246l-0.208,0.248l-0.207,0.248l-0.206,0.249l-0.206,0.25l-0.205,0.251l-0.203,0.252l-0.204,0.252l-0.202,0.254l-0.201,0.254l-0.201,0.255l-0.2,0.256l-0.199,0.257l-0.198,0.257l-0.197,0.259l-0.197,0.259l-0.195,0.26l-0.195,0.261l-0.194,0.262l-0.193,0.263l-0.192,0.263l-0.192,0.264l-0.19,0.265l-0.19,0.266l-0.188,0.267l-0.188,0.268l-0.187,0.268l-0.187,0.269l-0.185,0.27l-0.184,0.271l-0.184,0.271l-0.183,0.273l-0.182,0.273l-0.181,0.274l-0.18,0.275l-0.179,0.275l-0.178,0.276l-0.178,0.277l-0.176,0.278l-0.176,0.279l-0.174,0.279l-0.319,0.514l-0.316,0.514l-0.314,0.517l-0.311,0.517l-0.309,0.52l-0.154,0.26l-0.153,0.26l-0.152,0.261l-0.151,0.262l-0.151,0.261l-0.15,0.262l-0.15,0.263l-0.148,0.263l-0.148,0.263l-0.147,0.263l-0.147,0.264l-0.145,0.265l-0.145,0.264l-0.144,0.265l-0.143,0.266l-0.142,0.265l-0.142,0.267l-0.14,0.266l-0.14,0.267l-0.138,0.268l-0.138,0.267l-0.137,0.268l-0.136,0.269l-0.135,0.269l-0.134,0.269l-0.133,0.269l-0.132,0.27l-0.131,0.271l-0.129,0.27l-0.129,0.271l-0.128,0.272l-0.127,0.272l-0.125,0.272l-0.125,0.273l-0.123,0.273l-0.123,0.273l-0.121,0.274l-0.12,0.274l-0.119,0.274l-0.117,0.275l-0.117,0.276l-0.115,0.275l-0.114,0.276l-0.113,0.277l-0.111,0.277l-0.111,0.277l-0.109,0.277l-0.107,0.278l-0.107,0.279l-0.105,0.278l-0.104,0.279l-0.102,0.28l-0.101,0.28l-0.1,0.28l-0.098,0.281l-0.097,0.281l-0.095,0.281l-0.094,0.282l-0.093,0.282l-0.091,0.283l-0.09,0.282l-0.088,0.284l-0.087,0.283l-0.085,0.285l-0.083,0.284l-0.082,0.285l-0.081,0.285l-0.079,0.286l-0.077,0.286l-0.076,0.286l-0.074,0.287l-0.073,0.287l-0.071,0.288l-0.069,0.288l-0.068,0.288l-0.066,0.289l-0.064,0.289l-0.063,0.29l-0.061,0.289l-0.059,0.291l-0.057,0.29l-0.056,0.291l-0.054,0.292l-0.052,0.292l-0.05,0.292l-0.049,0.293l-0.047,0.293l-0.044,0.293l-0.043,0.294l-0.042,0.294l-0.039,0.295l-0.037,0.295l-0.036,0.296l-0.033,0.295l-0.032,0.297l-0.029,0.296l-0.028,0.297l-0.026,0.298l-0.024,0.298l-0.021,0.298l-0.02,0.299l-0.018,0.299l-0.016,0.299l-0.013,0.3l-0.012,0.3l-0.009,0.301l-0.008,0.301l-0.005,0.302l-0.003,0.302l-0.001,0.302l0.001,0.303l0.003,0.303l0.006,0.304l0.007,0.304l0.01,0.304l0.012,0.305l0.014,0.305l0.017,0.306l0.021,0.343l0.024,0.343l0.026,0.342l0.028,0.341l0.031,0.34l0.034,0.339l0.036,0.339l0.038,0.337l0.041,0.337l0.043,0.337l0.046,0.335l0.048,0.334l0.051,0.334l0.053,0.333l0.055,0.332l0.057,0.331l0.06,0.33l0.063,0.33l0.064,0.328l0.067,0.328l0.07,0.327l0.071,0.326l0.074,0.325l0.076,0.324l0.078,0.324l0.081,0.322l0.083,0.322l0.085,0.321l0.087,0.32l0.09,0.319l0.092,0.318l0.094,0.318l0.096,0.316l0.098,0.316l0.101,0.314l0.102,0.314l0.105,0.313l0.107,0.312l0.109,0.311l0.111,0.31l0.114,0.309l0.115,0.309l0.117,0.307l0.12,0.307l0.121,0.305l0.124,0.305l0.126,0.303l0.127,0.303l0.13,0.302l0.132,0.301l0.133,0.3l0.136,0.299l0.138,0.298l0.14,0.297l0.141,0.296l0.144,0.295l0.145,0.294l0.148,0.294l0.149,0.292l0.151,0.291l0.153,0.29l0.155,0.29l0.157,0.288l0.159,0.287l0.161,0.287l0.162,0.285l0.164,0.285l0.167,0.283l0.168,0.282l0.169,0.282l0.172,0.28l0.173,0.279l0.175,0.279l0.177,0.277l0.179,0.276l0.18,0.276l0.182,0.274l0.184,0.273l0.185,0.272l0.188,0.271l0.189,0.27l0.19,0.269l0.192,0.268l0.194,0.267l0.196,0.266l0.197,0.265l0.199,0.264l0.2,0.262l0.202,0.262l0.204,0.26l0.205,0.26l0.207,0.258l0.209,0.258l0.209,0.256l0.212,0.255l0.213,0.254l0.215,0.253l0.216,0.252l0.217,0.25l0.219,0.25l0.221,0.248l0.222,0.248l0.223,0.246l0.225,0.245l0.226,0.244l0.228,0.243l0.229,0.242l0.231,0.24l0.232,0.24l0.233,0.238l0.235,0.237l0.236,0.236l0.238,0.235l0.239,0.234l0.24,0.232l0.241,0.231l0.243,0.231l0.244,0.229l0.246,0.228l0.246,0.226l0.248,0.226l0.25,0.224l0.25,0.223l0.252,0.222l0.253,0.221l0.254,0.219l0.255,0.219l0.257,0.217l0.258,0.216l0.259,0.214l0.26,0.214l0.261,0.212l0.262,0.211l0.264,0.21l0.265,0.209l0.265,0.207l0.267,0.206l0.268,0.205l0.269,0.203l0.27,0.203l0.272,0.201l0.272,0.2l0.273,0.198l0.275,0.198l0.275,0.196l0.276,0.195l0.278,0.193l0.278,0.192l0.279,0.191l0.28,0.19l0.282,0.188l0.282,0.188l0.283,0.185l0.284,0.185l0.285,0.183l0.286,0.182l0.287,0.181l0.287,0.179l0.289,0.178l0.289,0.177l0.29,0.175l0.291,0.174l0.292,0.173l0.293,0.171l0.293,0.17l0.295,0.169l0.295,0.167l0.296,0.166l0.296,0.165l0.298,0.163l0.298,0.162l0.298,0.161l0.3,0.159l0.3,0.158l0.301,0.157l0.302,0.155l0.302,0.154l0.303,0.152l0.304,0.151l0.304,0.15l0.305,0.148l0.306,0.147l0.306,0.145l0.307,0.144l0.307,0.143l0.308,0.141l0.309,0.14l0.309,0.138l0.309,0.137l0.311,0.136l0.31,0.134l0.312,0.133l0.311,0.131l0.313,0.13l0.312,0.128l0.314,0.127l0.313,0.126l0.315,0.124l0.314,0.123l0.315,0.121l0.316,0.12l0.315,0.118l0.317,0.117l0.316,0.115l0.317,0.114l0.318,0.113l0.318,0.11l0.318,0.11l0.318,0.108l0.319,0.106l0.319,0.105l0.319,0.104l0.32,0.102l0.32,0.1l0.32,0.099l0.321,0.098l0.321,0.096l0.321,0.094l0.321,0.093l0.321,0.092l0.322,0.09l0.322,0.088l0.322,0.087l0.322,0.085l0.322,0.084l0.323,0.082l0.323,0.081l0.323,0.079l0.323,0.078l0.323,0.076l0.323,0.074l0.323,0.073l0.323,0.072l0.324,0.069l0.323,0.069l0.324,0.066l0.323,0.065l0.324,0.064l0.324,0.062l0.323,0.06l0.324,0.059l0.323,0.057l0.324,0.056l0.323,0.054l0.324,0.052l0.323,0.051l0.324,0.049l0.323,0.047l0.323,0.046l0.323,0.045l0.323,0.042l0.323,0.041l0.323,0.04l0.322,0.038l0.323,0.036l0.322,0.034l0.413,0.042l0.414,0.039l0.415,0.036l0.417,0.033l0.418,0.031l0.42,0.027l0.421,0.025l0.421,0.022l0.423,0.019l0.424,0.016l0.425,0.014l0.426,0.01l0.427,0.008l0.427,0.004l0.429,0.002l0.429,-0.001l0.43,-0.004l0.431,-0.007l0.431,-0.01l0.432,-0.013l0.432,-0.016l0.433,-0.019l0.217,-0.011l0.216,-0.011l0.217,-0.012l0.217,-0.013l0.217,-0.014l0.217,-0.014l0.217,-0.015l0.217,-0.016l0.218,-0.017l0.217,-0.017l0.217,-0.018l0.218,-0.019l0.217,-0.02l0.218,-0.02l0.217,-0.021l0.218,-0.022l0.217,-0.023l0.218,-0.024l0.217,-0.024l0.218,-0.025l0.217,-0.026l0.218,-0.026l0.217,-0.028l0.218,-0.028l0.217,-0.029l0.217,-0.029l0.218,-0.031l0.217,-0.031l0.217,-0.032l0.217,-0.033l0.217,-0.033l0.217,-0.035l0.217,-0.035l0.217,-0.036l0.217,-0.037l0.216,-0.037l0.217,-0.039l0.216,-0.039l0.217,-0.04l0.216,-0.04l0.216,-0.042l0.216,-0.042l0.215,-0.043l0.216,-0.044l0.215,-0.045l0.216,-0.045l0.215,-0.047l0.215,-0.047l0.215,-0.048l0.214,-0.048l0.215,-0.05l0.214,-0.05l0.214,-0.051l0.214,-0.052l0.213,-0.053l0.213,-0.053l0.214,-0.055l0.213,-0.055l0.212,-0.056l0.213,-0.057l0.212,-0.057l0.212,-0.059l0.211,-0.059l0.212,-0.06l0.211,-0.061l0.211,-0.062l0.21,-0.062l0.21,-0.064l0.21,-0.064l0.21,-0.065l0.209,-0.066l0.209,-0.067l0.209,-0.067l0.208,-0.069l0.208,-0.069l0.208,-0.07l0.207,-0.071l0.207,-0.071l0.207,-0.073l0.206,-0.073l0.206,-0.074l0.206,-0.075l0.205,-0.076l0.205,-0.077l0.204,-0.078l0.204,-0.078l0.204,-0.079l0.203,-0.081l0.203,-0.081l0.202,-0.081l0.202,-0.083l0.201,-0.084l0.201,-0.084l0.201,-0.085l0.2,-0.086l0.2,-0.087l0.199,-0.088l0.198,-0.089l0.199,-0.089l0.198,-0.09l0.197,-0.092l0.197,-0.092l0.196,-0.093l0.196,-0.094l0.195,-0.094l0.195,-0.096l0.194,-0.096l0.194,-0.097l0.193,-0.099l0.193,-0.099l0.192,-0.1l0.191,-0.1l0.191,-0.102l0.191,-0.103l0.19,-0.103l0.189,-0.104l0.189,-0.105l0.188,-0.106l0.187,-0.107l0.187,-0.108l0.186,-0.109l0.186,-0.109l0.185,-0.111l0.185,-0.111l0.184,-0.112l0.183,-0.113l0.182,-0.114l0.182,-0.115l0.182,-0.116l0.18,-0.117l0.18,-0.117l0.18,-0.119l0.178,-0.119l0.178,-0.12l0.177,-0.121l0.177,-0.123l0.176,-0.122l0.175,-0.124l0.175,-0.125l0.173,-0.126l0.173,-0.126l0.173,-0.128l0.171,-0.128l0.171,-0.129l0.17,-0.131l0.169,-0.131l0.169,-0.132l0.168,-0.133l0.167,-0.133l0.166,-0.135l0.166,-0.136l0.165,-0.136l0.163,-0.138l0.164,-0.138l0.162,-0.14l0.162,-0.14l0.16,-0.141l0.16,-0.142l0.159,-0.143l0.159,-0.144l0.157,-0.145l0.157,-0.146l0.155,-0.146l0.155,-0.148l0.154,-0.149l0.154,-0.149l0.152,-0.151l0.151,-0.151l0.151,-0.152l0.15,-0.154l0.148,-0.154l0.148,-0.155l0.147,-0.156l0.146,-0.157l0.146,-0.158l0.144,-0.159l0.143,-0.16l0.143,-0.161l0.141,-0.161l0.141,-0.163l0.139,-0.164l0.139,-0.164l0.138,-0.166l0.136,-0.166l0.136,-0.168l0.135,-0.168l0.134,-0.17l0.132,-0.17l0.132,-0.171l0.131,-0.173l0.13,-0.173l0.129,-0.174l0.127,-0.175l0.127,-0.176l0.126,-0.178l0.125,-0.178l0.123,-0.179l0.123,-0.18l0.122,-0.181l0.12,-0.182l0.12,-0.183l0.118,-0.184l0.117,-0.184l0.117,-0.186l0.115,-0.187l0.114,-0.188l0.113,-0.189l0.112,-0.19l0.111,-0.191l0.109,-0.192l0.109,-0.192l0.107,-0.194l0.078,-0.143l0.077,-0.143l0.076,-0.145l0.076,-0.145l0.075,-0.147l0.074,-0.148l0.074,-0.148l0.072,-0.15l0.072,-0.151l0.072,-0.152l0.071,-0.153l0.069,-0.154l0.07,-0.154l0.068,-0.156l0.068,-0.157l0.067,-0.158l0.066,-0.159l0.066,-0.159l0.065,-0.161l0.064,-0.161l0.064,-0.162l0.062,-0.164l0.062,-0.164l0.062,-0.165l0.06,-0.166l0.06,-0.167l0.059,-0.167l0.058,-0.169l0.058,-0.169l0.057,-0.17l0.056,-0.171l0.055,-0.172l0.055,-0.172l0.053,-0.173l0.053,-0.174l0.053,-0.175l0.051,-0.176l0.051,-0.176l0.05,-0.177l0.049,-0.178l0.049,-0.178l0.047,-0.179l0.047,-0.18l0.046,-0.18l0.046,-0.182l0.045,-0.181l0.043,-0.183l0.043,-0.183l0.043,-0.183l0.041,-0.185l0.041,-0.185l0.04,-0.185l0.039,-0.186l0.038,-0.187l0.038,-0.187l0.037,-0.188l0.036,-0.188l0.035,-0.189l0.034,-0.189l0.034,-0.19l0.032,-0.191l0.032,-0.19l0.032,-0.192l0.03,-0.192l0.03,-0.192l0.028,-0.193l0.028,-0.193l0.027,-0.194l0.027,-0.194l0.025,-0.194l0.025,-0.195l0.024,-0.195l0.023,-0.196l0.022,-0.196l0.021,-0.196l0.021,-0.197l0.02,-0.197l0.019,-0.198l0.018,-0.197l0.017,-0.198l0.017,-0.199l0.015,-0.198l0.015,-0.199l0.014,-0.199l0.013,-0.2l0.012,-0.2l0.012,-0.2l0.01,-0.2l0.01,-0.2l0.009,-0.201l0.008,-0.2l0.007,-0.202l0.007,-0.201l0.005,-0.201l0.005,-0.202l0.004,-0.201l0.003,-0.202l0.002,-0.202l0.001,-0.202l0,-0.202l0,-0.203l-0.001,-0.202l-0.003,-0.203l-0.003,-0.202l-0.004,-0.203l-0.004,-0.202l-0.006,-0.203l-0.006,-0.203l-0.008,-0.203l-0.008,-0.202l-0.009,-0.203l-0.01,-0.203l-0.011,-0.203l-0.012,-0.202l-0.013,-0.203l-0.013,-0.203l-0.014,-0.202l-0.016,-0.202l-0.016,-0.203l-0.017,-0.202l-0.018,-0.203l-0.019,-0.202l-0.02,-0.202l-0.02,-0.202l-0.022,-0.201l-0.022,-0.202l-0.023,-0.201l-0.024,-0.201l-0.026,-0.202l-0.026,-0.201l-0.026,-0.2l-0.028,-0.201l-0.029,-0.2l-0.03,-0.2l-0.03,-0.2l-0.031,-0.199l-0.033,-0.2l-0.033,-0.199l-0.034,-0.198l-0.035,-0.199l-0.036,-0.198l-0.037,-0.198l-0.038,-0.197l-0.038,-0.198l-0.04,-0.197l-0.04,-0.196l-0.042,-0.196l-0.042,-0.196l-0.044,-0.195l-0.044,-0.195l-0.045,-0.195l-0.046,-0.194l-0.047,-0.194l-0.048,-0.194l-0.049,-0.192l-0.05,-0.193l-0.05,-0.192l-0.052,-0.191l-0.053,-0.191l-0.053,-0.191l-0.055,-0.19l-0.055,-0.19l-0.056,-0.189l-0.058,-0.188l-0.058,-0.188l-0.059,-0.188l-0.06,-0.187l-0.061,-0.186l-0.062,-0.186l-0.063,-0.185l-0.064,-0.185l-0.065,-0.184l-0.065,-0.183l-0.067,-0.183l-0.068,-0.182l-0.068,-0.181l-0.07,-0.181l-0.07,-0.18l-0.072,-0.179l-0.072,-0.179l-0.074,-0.178l-0.074,-0.178l-0.076,-0.176l-0.076,-0.176l-0.077,-0.175l-0.078,-0.175l-0.079,-0.173l-0.08,-0.173l-0.082,-0.173l-0.082,-0.171l-0.083,-0.17l-0.084,-0.17l-0.085,-0.169l-0.086,-0.168l-0.087,-0.168l-0.087,-0.166l-0.089,-0.166l-0.09,-0.164l-0.091,-0.164l-0.092,-0.163l-0.092,-0.162l-0.094,-0.161l-0.095,-0.161l-0.096,-0.159l-0.096,-0.159l-0.098,-0.157l-0.098,-0.156l-0.1,-0.156l-0.101,-0.155l-0.101,-0.153l-0.103,-0.153l-0.103,-0.152l-0.105,-0.15l-0.105,-0.15l-0.107,-0.149l-0.107,-0.147l-0.109,-0.147l-0.109,-0.145l-0.111,-0.145l-0.111,-0.143l-0.113,-0.142l-0.113,-0.142l-0.115,-0.14l-0.115,-0.139l-0.117,-0.138l-0.117,-0.136l-0.119,-0.136l-0.119,-0.134l-0.121,-0.134l-0.121,-0.132l-0.123,-0.131l-0.123,-0.13l-0.125,-0.128l-0.125,-0.128l-0.127,-0.126l-0.127,-0.125l-0.129,-0.124l-0.129,-0.122l-0.131,-0.122l-0.132,-0.12l-0.132,-0.119l-0.134,-0.117l-0.135,-0.116l-0.135,-0.115l-0.137,-0.114l-0.138,-0.112l-0.139,-0.111l-0.139,-0.11l-0.141,-0.109l-0.142,-0.107l-0.143,-0.105l-0.144,-0.105l-0.145,-0.103l-0.146,-0.101l-0.147,-0.101l-0.149,-0.099l-0.508,-0.334l-0.498,-0.324l-0.488,-0.314l-0.24,-0.153l-0.237,-0.151l-0.235,-0.148l-0.233,-0.146l-0.231,-0.144l-0.228,-0.141l-0.227,-0.139l-0.224,-0.137l-0.222,-0.134l-0.22,-0.133l-0.218,-0.13l-0.216,-0.127l-0.214,-0.126l-0.212,-0.123l-0.211,-0.121l-0.209,-0.119l-0.207,-0.118l-0.205,-0.114l-0.204,-0.113l-0.202,-0.111l-0.201,-0.109l-0.199,-0.107l-0.198,-0.105l-0.197,-0.103l-0.195,-0.102l-0.194,-0.099l-0.193,-0.097l-0.192,-0.096l-0.19,-0.094l-0.19,-0.092l-0.188,-0.091l-0.188,-0.088l-0.187,-0.087l-0.185,-0.086l-0.185,-0.083l-0.185,-0.082l-0.183,-0.081l-0.183,-0.079l-0.183,-0.077l-0.181,-0.076l-0.182,-0.075l-0.181,-0.072l-0.18,-0.072l-0.18,-0.07l-0.18,-0.069l-0.18,-0.067l-0.179,-0.066l-0.18,-0.065l-0.179,-0.063l-0.179,-0.062l-0.18,-0.061l-0.179,-0.06l-0.18,-0.058l-0.179,-0.057l-0.18,-0.056l-0.181,-0.055l-0.18,-0.054l-0.181,-0.053l-0.182,-0.052l-0.182,-0.051l-0.182,-0.05l-0.183,-0.049l-0.184,-0.047l-0.185,-0.047l-0.185,-0.046l-0.186,-0.046l-0.187,-0.044l-0.188,-0.043l-0.189,-0.043l-0.189,-0.042l-0.191,-0.041l-0.192,-0.04l-0.194,-0.04l-0.194,-0.039l-0.196,-0.038l-0.197,-0.038l-0.198,-0.037l-0.2,-0.037l-0.202,-0.036l-0.203,-0.035l-0.204,-0.035l-0.206,-0.034l-0.417,-0.067l-0.425,-0.065l-0.432,-0.064l-0.439,-0.063l-0.449,-0.061l-0.456,-0.06l-0.466,-0.06l-0.476,-0.058l-0.485,-0.059l-0.495,-0.058l-0.506,-0.058l-0.517,-0.058l-0.529,-0.058l-0.54,-0.059l-1.117,-0.12l-2.393,-0.255l-1.26,-0.134l-0.665,-0.069l-0.34,-0.035l-0.346,-0.035l-0.35,-0.034l-0.355,-0.033l-0.36,-0.033l-0.363,-0.032l-0.368,-0.031l-0.371,-0.03l-0.375,-0.029l-0.378,-0.027l-0.38,-0.025l-0.384,-0.024l-0.386,-0.021l-0.389,-0.02l-0.391,-0.017l-0.392,-0.014l-0.394,-0.012l-0.396,-0.01l-0.197,-0.003l-0.199,-0.003l-0.199,-0.002l-0.198,-0.001l-0.199,0l-0.199,0l-0.2,0.002l-0.199,0.002l-0.199,0.003l-0.2,0.004l-0.199,0.005l-0.199,0.006l-0.199,0.007l-0.2,0.008l-0.199,0.008l-0.198,0.01l-0.199,0.011l-0.198,0.012l-0.199,0.014l-0.198,0.014l-0.197,0.015l-0.197,0.017l-0.197,0.018l-0.197,0.018l-0.196,0.021l-0.195,0.021l-0.195,0.023l-0.195,0.023l-0.194,0.026l-0.193,0.026l-0.193,0.028l-0.193,0.029l-0.191,0.03l-0.191,0.032l-0.19,0.033l-0.189,0.035l-0.189,0.036l-0.188,0.038l-0.187,0.039l-0.186,0.04l-0.185,0.042l-0.184,0.044l-0.183,0.045l-0.182,0.046l-0.181,0.048l-0.181,0.05l-0.179,0.052l-0.178,0.053l-0.176,0.054l-0.176,0.056l-0.174,0.058l-0.174,0.06l-0.172,0.062l-0.17,0.063l-0.17,0.064l-0.168,0.067l-0.166,0.069l-0.166,0.07l-0.163,0.072l-0.163,0.074l-0.161,0.075l-0.159,0.078l-0.158,0.079l-0.156,0.082l-0.155,0.083l-0.153,0.085l-0.152,0.087l-0.15,0.089l-0.148,0.091l-0.146,0.093l-0.145,0.095l-0.143,0.097l-0.142,0.099l-0.139,0.102l-0.138,0.103l-0.136,0.105l-0.134,0.109l-0.066,0.053l-0.066,0.056l-0.065,0.055l-0.065,0.056l-0.064,0.057l-0.064,0.058l-0.092,0.083l-0.091,0.084l-0.091,0.085l-0.089,0.085l-0.09,0.085l-0.088,0.086l-0.088,0.087l-0.087,0.087l-0.087,0.087l-0.085,0.088l-0.086,0.088l-0.084,0.089l-0.084,0.089l-0.083,0.089l-0.083,0.09l-0.081,0.091l-0.082,0.091l-0.08,0.091l-0.08,0.092l-0.079,0.092l-0.079,0.092l-0.078,0.093l-0.077,0.094l-0.076,0.094l-0.076,0.094l-0.075,0.094l-0.075,0.095l-0.074,0.096l-0.073,0.096l-0.073,0.096l-0.072,0.096l-0.071,0.097l-0.071,0.098l-0.07,0.098l-0.07,0.098l-0.068,0.098l-0.068,0.099l-0.068,0.099l-0.067,0.1l-0.066,0.1l-0.066,0.1l-0.064,0.101l-0.129,0.203l-0.125,0.204l-0.123,0.205l-0.12,0.207l-0.118,0.208l-0.116,0.21l-0.113,0.211l-0.11,0.212l-0.108,0.213l-0.105,0.215l-0.103,0.216l-0.101,0.217l-0.098,0.218l-0.096,0.22l-0.093,0.221l-0.091,0.221l-0.088,0.223l-0.086,0.224l-0.083,0.225l-0.081,0.226l-0.079,0.227l-0.076,0.229l-0.074,0.229l-0.072,0.23l-0.069,0.231l-0.067,0.232l-0.064,0.232l-0.062,0.234l-0.06,0.234l-0.057,0.236l-0.055,0.236l-0.053,0.237l-0.051,0.237l-0.048,0.239l-0.045,0.239l-0.044,0.239l-0.041,0.241l-0.039,0.241l-0.037,0.241l-0.034,0.243l-0.032,0.242l-0.03,0.244l-0.028,0.244l-0.025,0.244l-0.023,0.245l-0.021,0.245l-0.019,0.246l-0.016,0.246l-0.014,0.247l-0.012,0.246l-0.01,0.248l-0.008,0.247l-0.005,0.248l-0.004,0.248l-0.001,0.249l0.001,0.248l0.003,0.249l0.006,0.249l0.007,0.249l0.01,0.249l0.011,0.25l0.014,0.249l0.016,0.25l0.018,0.249l0.02,0.25l0.023,0.249l0.024,0.25l0.026,0.249l0.029,0.25l0.03,0.249l0.033,0.249l0.034,0.249l0.037,0.249l0.039,0.248l0.041,0.249l0.042,0.248l0.045,0.248l0.047,0.247l0.048,0.248l0.051,0.247l0.053,0.246l0.054,0.246l0.057,0.246l0.059,0.246l0.06,0.245l0.062,0.244l0.065,0.244l0.066,0.243l0.068,0.243l0.07,0.242l0.072,0.242l0.074,0.241l0.076,0.241l0.078,0.24l0.079,0.239l0.082,0.238l0.083,0.238l0.085,0.236l0.087,0.237l0.089,0.235l0.09,0.234l0.093,0.234l0.094,0.233l0.096,0.232l0.098,0.231l0.099,0.23l0.102,0.229l0.103,0.228l0.104,0.227l0.107,0.226l0.108,0.225l0.11,0.223l0.112,0.223l0.114,0.222l0.115,0.22l0.117,0.22l0.119,0.218l0.12,0.216l0.122,0.216l0.123,0.214l0.126,0.214l0.127,0.211l0.128,0.211l0.13,0.209l0.132,0.207l0.134,0.207l0.135,0.204l0.136,0.204l0.139,0.202l0.14,0.2l0.141,0.199l0.143,0.197l0.144,0.196l0.146,0.194l0.148,0.193l0.149,0.191l0.151,0.189l0.152,0.188l0.154,0.186l0.155,0.184l0.157,0.182l0.158,0.181l0.16,0.179l0.161,0.177l0.162,0.175l0.164,0.173l0.166,0.172l0.167,0.169l0.168,0.168l0.17,0.166l0.171,0.164l0.172,0.161l0.174,0.16l0.175,0.158l0.177,0.155l0.178,0.154l0.179,0.151l0.181,0.15l0.182,0.147l0.184,0.145l0.184,0.143l0.186,0.14l0.188,0.139l0.188,0.136l0.19,0.133l0.191,0.132l0.193,0.129l0.194,0.127l0.195,0.125l0.196,0.122l0.197,0.119l0.199,0.118l0.2,0.115l0.201,0.112l0.202,0.11l0.204,0.107l0.205,0.105l0.206,0.103l0.207,0.099l0.208,0.097l0.21,0.095l0.21,0.092l0.213,0.089l0.106,0.044l0.106,0.043l0.107,0.042l0.107,0.041l0.108,0.041l0.108,0.041l0.108,0.039l0.108,0.039l0.109,0.038l0.109,0.038l0.109,0.036l0.109,0.037l0.11,0.035l0.11,0.035l0.11,0.034l0.111,0.033l0.111,0.032l0.111,0.032l0.111,0.031l0.112,0.031l0.112,0.029l0.112,0.029l0.112,0.028l0.113,0.028l0.113,0.027l0.113,0.026l0.114,0.025l0.114,0.025l0.114,0.023l0.114,0.023l0.115,0.023l0.115,0.021l0.115,0.021l0.115,0.02l0.116,0.019l0.116,0.019l0.116,0.018l0.117,0.017l0.116,0.016l0.117,0.015l0.117,0.015l0.118,0.014l0.118,0.013l0.118,0.012l0.118,0.012l0.119,0.01l0.118,0.01l0.119,0.01l0.12,0.008l0.119,0.007l0.12,0.007l0.12,0.006l0.12,0.005l0.121,0.004l0.121,0.004l0.121,0.003l0.121,0.001l0.122,0.002l0.122,0l0.122,-0.001l0.122,-0.001l0.123,-0.003l0.122,-0.003l0.123,-0.004l0.124,-0.005l0.123,-0.005l0.124,-0.007l0.124,-0.007l0.124,-0.009l0.125,-0.009l0.125,-0.01l0.125,-0.01l0.125,-0.012l0.125,-0.013l0.126,-0.013l0.126,-0.015l0.126,-0.015l0.127,-0.016l0.127,-0.017l0.126,-0.018l0.128,-0.019l0.127,-0.019l0.128,-0.021l0.127,-0.021l0.129,-0.023l0.128,-0.023l0.129,-0.024l0.128,-0.025l0.129,-0.026l0.13,-0.027l0.129,-0.028l0.13,-0.029l0.13,-0.03l0.13,-0.03l0.13,-0.032l0.131,-0.032l0.131,-0.034l0.131,-0.034l0.131,-0.036l0.132,-0.036l0.132,-0.037l0.132,-0.039l0.132,-0.039l0.131,-0.04l0.186,-0.058l0.184,-0.061l0.181,-0.062l0.18,-0.064l0.177,-0.067l0.176,-0.068l0.174,-0.071l0.172,-0.073l0.17,-0.074l0.168,-0.077l0.166,-0.078l0.164,-0.08l0.163,-0.083l0.16,-0.084l0.159,-0.086l0.157,-0.087l0.155,-0.09l0.153,-0.091l0.151,-0.094l0.149,-0.094l0.148,-0.097l0.145,-0.099l0.144,-0.1l0.142,-0.101l0.14,-0.104l0.138,-0.105l0.136,-0.107l0.135,-0.108l0.132,-0.11l0.131,-0.112l0.129,-0.113l0.127,-0.114l0.125,-0.116l0.123,-0.118l0.121,-0.119l0.12,-0.121l0.118,-0.122l0.115,-0.123l0.114,-0.125l0.113,-0.126l0.11,-0.128l0.108,-0.129l0.107,-0.13l0.104,-0.132l0.103,-0.133l0.101,-0.134l0.099,-0.136l0.098,-0.137l0.095,-0.138l0.094,-0.139l0.091,-0.14l0.09,-0.142l0.088,-0.143l0.086,-0.144l0.085,-0.145l0.082,-0.146l0.08,-0.147l0.079,-0.149l0.077,-0.149l0.075,-0.15l0.073,-0.152l0.071,-0.152l0.069,-0.154l0.068,-0.154l0.066,-0.155l0.063,-0.156l0.062,-0.157l0.06,-0.158l0.058,-0.159l0.056,-0.16l0.055,-0.16l0.052,-0.162l0.051,-0.162l0.048,-0.162l0.047,-0.164l0.045,-0.164l0.043,-0.165l0.041,-0.166l0.039,-0.166l0.037,-0.167l0.036,-0.168l0.033,-0.168l0.032,-0.169l0.03,-0.17l0.027,-0.169l0.026,-0.171l0.024,-0.171l0.022,-0.171l0.021,-0.173l0.018,-0.172l0.016,-0.173l0.015,-0.173l0.012,-0.174l0.011,-0.173l0.008,-0.175l0.007,-0.175l0.005,-0.175l0.003,-0.175l0.001,-0.175l-0.001,-0.176l-0.003,-0.176l-0.005,-0.177l-0.006,-0.176l-0.009,-0.177l-0.01,-0.176l-0.013,-0.177l-0.014,-0.177l-0.017,-0.177l-0.018,-0.177l-0.02,-0.178l-0.022,-0.177l-0.024,-0.177l-0.026,-0.177l-0.028,-0.178l-0.03,-0.177l-0.032,-0.177l-0.034,-0.177l-0.036,-0.177l-0.037,-0.177l-0.04,-0.176l-0.041,-0.177l-0.044,-0.176l-0.045,-0.176l-0.048,-0.176l-0.049,-0.175l-0.051,-0.175l-0.053,-0.175l-0.056,-0.175l-0.043,-0.133l-0.045,-0.132l-0.046,-0.132l-0.048,-0.133l-0.049,-0.132l-0.051,-0.132l-0.052,-0.132l-0.054,-0.132l-0.055,-0.132l-0.056,-0.131l-0.058,-0.132l-0.059,-0.131l-0.061,-0.13l-0.061,-0.131l-0.064,-0.129l-0.064,-0.13l-0.066,-0.129l-0.067,-0.128l-0.069,-0.128l-0.069,-0.127l-0.071,-0.127l-0.073,-0.126l-0.073,-0.126l-0.075,-0.125l-0.076,-0.124l-0.077,-0.123l-0.078,-0.122l-0.079,-0.122l-0.081,-0.121l-0.082,-0.12l-0.082,-0.119l-0.084,-0.118l-0.085,-0.117l-0.086,-0.116l-0.088,-0.114l-0.088,-0.114l-0.089,-0.113l-0.09,-0.111l-0.091,-0.111l-0.093,-0.109l-0.093,-0.108l-0.094,-0.106l-0.095,-0.105l-0.096,-0.104l-0.097,-0.103l-0.098,-0.101l-0.098,-0.099l-0.1,-0.098l-0.1,-0.097l-0.102,-0.095l-0.102,-0.094l-0.103,-0.092l-0.103,-0.09l-0.105,-0.088l-0.105,-0.087l-0.106,-0.085l-0.106,-0.084l-0.108,-0.081l-0.108,-0.08l-0.108,-0.078l-0.11,-0.076l-0.11,-0.075l-0.11,-0.072l-0.112,-0.07l-0.111,-0.068l-0.113,-0.067l-0.113,-0.064l-0.113,-0.062l-0.114,-0.06l-0.115,-0.058l-0.115,-0.056l-0.115,-0.054l-0.116,-0.052l-0.117,-0.049l-0.117,-0.047l-0.117,-0.045l-0.118,-0.042l-0.118,-0.04l-0.119,-0.038l-0.119,-0.036l-0.119,-0.033l-0.12,-0.031l-0.12,-0.028l-0.12,-0.026l-0.121,-0.023l-0.121,-0.021l-0.122,-0.018l-0.122,-0.016l-0.122,-0.013l-0.123,-0.011l-0.122,-0.008l-0.124,-0.005l-0.123,-0.003l-0.124,0l-0.126,0.003l-0.061,0.002l-0.062,0.003l-0.062,0.004l-0.063,0.004l-0.063,0.006l-0.062,0.005l-0.063,0.007l-0.063,0.007l-0.063,0.008l-0.063,0.009l-0.063,0.01l-0.063,0.01l-0.063,0.011l-0.064,0.012l-0.063,0.012l-0.064,0.013l-0.063,0.014l-0.064,0.015l-0.064,0.016l-0.064,0.016l-0.064,0.017l-0.064,0.018l-0.064,0.018l-0.064,0.02l-0.065,0.02l-0.064,0.021l-0.065,0.022l-0.064,0.022l-0.065,0.024l-0.065,0.024l-0.065,0.025l-0.065,0.026l-0.065,0.027l-0.065,0.027l-0.065,0.029l-0.066,0.029l-0.065,0.03l-0.066,0.031l-0.065,0.032l-0.066,0.033l-0.066,0.033l-0.066,0.035l-0.066,0.035l-0.065,0.036l-0.067,0.038l-0.066,0.038l-0.066,0.039l-0.066,0.04l-0.067,0.04l-0.066,0.042l-0.067,0.043l-0.066,0.043l-0.067,0.045l-0.067,0.045l-0.066,0.047l-0.067,0.047l-0.067,0.049l-0.067,0.049l-0.067,0.051l-0.067,0.051l-0.067,0.052l-0.068,0.053l-0.067,0.055l-0.067,0.055l-0.068,0.056l-0.069,0.059l-0.174,0.097l-0.198,0.023l-0.192,-0.055l-0.157,-0.124l-0.097,-0.174l-0.023,-0.199l0.055,-0.192l0.124,-0.156l0.072,-0.062l0.074,-0.061l0.074,-0.061l0.074,-0.06l0.074,-0.059l0.074,-0.057l0.075,-0.057l0.074,-0.056l0.074,-0.055l0.075,-0.054l0.074,-0.052l0.075,-0.052l0.074,-0.051l0.075,-0.05l0.075,-0.049l0.074,-0.048l0.075,-0.047l0.075,-0.046l0.075,-0.045l0.074,-0.044l0.075,-0.043l0.075,-0.042l0.075,-0.041l0.075,-0.04l0.075,-0.04l0.075,-0.038l0.075,-0.037l0.075,-0.037l0.075,-0.035l0.075,-0.035l0.075,-0.034l0.075,-0.032l0.075,-0.032l0.075,-0.031l0.075,-0.03l0.075,-0.029l0.075,-0.028l0.075,-0.027l0.076,-0.026l0.075,-0.026l0.075,-0.024l0.074,-0.024l0.075,-0.022l0.075,-0.022l0.075,-0.021l0.075,-0.02l0.075,-0.019l0.075,-0.018l0.075,-0.017l0.074,-0.017l0.075,-0.015l0.074,-0.015l0.075,-0.014l0.075,-0.012l0.074,-0.013l0.074,-0.011l0.075,-0.01l0.074,-0.01l0.074,-0.008l0.074,-0.008l0.074,-0.007l0.074,-0.006l0.074,-0.005l0.074,-0.005l0.073,-0.004l0.075,-0.002l0.146,-0.004l0.146,0l0.146,0.004l0.145,0.006Z" style="fill:#000;"/></svg>