<?xml version="1.0" standalone="no"?><!DOCTYPE svg PUBLIC "-//W3C//DTD SVG 1.1//EN" "http://www.w3.org/Graphics/SVG/1.1/DTD/svg11.dtd"><svg width="100%" height="100%" viewBox="0 0 225 237" version="1.1" xmlns="http://www.w3.org/2000/svg" xmlns:xlink="http://www.w3.org/1999/xlink" xml:space="preserve" style="fill-rule:evenodd;clip-rule:evenodd;stroke-linejoin:round;stroke-miterlimit:1.41421;"><path id="teapot_path" d="M201.113,132.165l-1.362,-4.759c0,0 5.103,0.341 8.506,-6.46c3.4,-6.803 17.349,-31.976 15.647,-55.108c-1.7,-23.129 -24.153,-64.972 -103.752,-64.972c-79.598,0 -93.207,50.685 -92.525,66.334c0.68,15.649 10.545,46.595 14.968,53.403c4.423,6.803 6.805,6.462 10.205,5.782l-1.02,5.103l-7.483,8.505c0,0 -6.123,-3.064 -13.267,-11.908c-7.144,-8.839 -14.629,-11.901 -25.511,-8.495c-10.888,3.4 0.338,6.8 3.397,9.518c3.065,2.718 7.147,8.162 8.167,18.024c1.021,9.867 0.68,24.494 12.247,35.038c0,0 2.589,44.398 71.643,51.881c22.659,2.456 50.277,2.746 65.567,-2.339c43.038,-14.313 48.422,-34.469 52.885,-52.431c1.214,-4.886 -0.622,-24.666 -18.312,-47.116ZM196.805,119.587l-11.565,-1.998c0,0 4.082,-6.164 0.228,-10.246c-3.854,-4.082 -28.35,-11.111 -50.343,-10.206c0,0 5.216,-4.99 5.216,-10.659c0,-5.67 -6.555,-10.073 -10.888,-9.98c-10.687,0.228 -14.06,4.992 -14.06,11.339c0,6.346 6.577,10.659 6.577,10.659c0,0 -53.748,-4.538 -52.387,15.875c0,0 -15.416,-2.041 -14.967,7.483l-4.313,0c0,0 -23.136,-29.332 -14.484,-66.302c7.966,-34.036 47.036,-49.73 87.63,-48.596c40.592,1.136 93.087,19.415 94.937,59.797c0,0 1.764,27.075 -16.591,55.103l-3.626,0l-1.364,-2.269Z" style="stroke-width:1px;fill:none;stroke:#333;"/></svg>