<?xml version="1.0" standalone="no"?><!DOCTYPE svg PUBLIC "-//W3C//DTD SVG 1.1//EN" "http://www.w3.org/Graphics/SVG/1.1/DTD/svg11.dtd"><svg width="100%" height="100%" viewBox="0 0 440 538" version="1.1" xmlns="http://www.w3.org/2000/svg" xmlns:xlink="http://www.w3.org/1999/xlink" xml:space="preserve" style="fill-rule:evenodd;clip-rule:evenodd;stroke-linecap:round;stroke-linejoin:round;stroke-miterlimit:1.41421;"><path d="M81.182,535.786c-7.708,-15.854 -13.888,-32.178 -18.145,-49.303c-3.676,-14.793 -4.958,-33.384 -0.391,-48.144c9.419,-30.437 36.932,-50.701 66.049,-59.888c24.905,-7.857 50.81,-8.586 76.561,-11.462c11.657,-1.302 23.247,-3.149 34.899,-4.496c26.314,-3.042 50.173,-5.216 74.263,-17.183c13.676,-6.794 32.448,-15.494 44.495,-26.727c12.394,-11.557 22.301,-30.394 30.381,-43.726c19.037,-31.412 38.739,-60.217 45.816,-96.628c1.877,-9.655 2.806,-32.711 3.043,-42.339c0.195,-7.916 0.19,-15.836 0.185,-23.755c0,-12.322 2.947,-27.72 -6.458,-37.936c-7.179,-7.798 -27.278,-10.256 -35.177,-10.986c-15.312,-1.414 -36.57,-2.125 -43.013,15.255c-1.48,3.993 -2.901,8.056 -3.605,12.256c-4.042,24.112 -1.091,55.047 26.906,61.86c5.601,1.363 13.988,1.808 19.527,-0.394c18.442,-7.331 31.713,-33.417 14.472,-49.049c-6.037,-5.474 -13.265,-7.672 -21.236,-8.585c-14.804,-1.695 -20.794,18.81 -22.332,29.242c-0.331,2.247 0.267,7.751 2.346,9.621c6.349,5.711 21.166,3.043 20.602,-7.534c-0.133,-2.484 -1.795,-4.657 -2.999,-6.834c-0.808,-1.46 -2.999,-2.338 -2.999,-4.006" style="fill:none;stroke-width:1.05px;stroke:#000;"/><path d="M89.174,536.314c0,-41.528 -12.019,-80.679 -31.055,-117.244c-7.884,-15.143 -21.341,-27.49 -30.903,-41.375c-4.277,-6.211 -8.652,-17.121 -10.901,-24.182c-14.048,-44.124 -17.317,-89.042 -14.042,-135.308c2.521,-35.605 9.623,-74.408 30.631,-104.349c17.006,-24.236 40.62,-37.865 64.573,-54.724c11.948,-8.409 32.658,-24.224 45.51,-31.33c19.268,-10.652 40.134,-18.374 61.706,-22.608c16.46,-3.231 34.325,-6.368 50.928,-1.793c23.322,6.426 43.403,27.666 56.969,46.668c11.902,16.67 28.004,45.263 17.868,66.368c-3.289,6.85 -10.347,13.268 -17.265,16.307c-11.409,5.012 -18.108,7.327 -30.493,5.903c-5.841,-0.671 -13.666,-5.253 -18.142,-8.625c-15.76,-11.871 -31.779,-36.134 -26.51,-56.927c1.407,-5.555 6.301,-12.828 10.314,-16.771c6.44,-6.327 11.586,-10.315 20.651,-11.593c22.221,-3.133 44.84,19.58 48.827,40.143c1.745,8.998 0.607,13.735 -3.828,21.464c-3.335,5.814 -12.378,7.162 -17.45,2.926c-7.267,-6.069 -15.905,-27.912 -2.902,-32.98c2.45,-0.955 5.059,-1.749 7.688,-1.758c10.825,-0.036 10.353,13.91 8.635,20.723c-0.435,1.725 -2.74,3.518 -4.074,0.99c-0.933,-1.768 -1.449,-3.822 -1.449,-5.822" style="fill:none;stroke-width:1.27px;stroke:#000;"/></svg>