<?xml version="1.0" standalone="no"?><!DOCTYPE svg PUBLIC "-//W3C//DTD SVG 1.1//EN" "http://www.w3.org/Graphics/SVG/1.1/DTD/svg11.dtd"><svg width="100%" height="100%" viewBox="0 0 545 657" version="1.1" xmlns="http://www.w3.org/2000/svg" xmlns:xlink="http://www.w3.org/1999/xlink" xml:space="preserve" style="fill-rule:evenodd;clip-rule:evenodd;stroke-linecap:round;stroke-linejoin:round;stroke-miterlimit:1.41421;"><path d="M178.472,656.043c-27.012,-37.362 -53.844,-74.772 -69.351,-118.66c-11.304,-31.994 -12.398,-67.636 -14.639,-100.917c-2.444,-36.287 -3.205,-74.289 13.139,-107.85c25.069,-51.472 89.58,-55.116 137.358,-69.786c41.672,-12.795 154.981,-26.801 195.131,-43.801c22.76,-9.637 47.445,-22.783 66.38,-39.123c13.913,-12.007 26.747,-27.849 33.674,-45.04c4.304,-10.681 3.657,-18.924 2.964,-30.578c-1.211,-20.358 -6.171,-37.172 -14.064,-55.823c-6.46,-15.266 -14.48,-35.934 -31.875,-41.596c-5.578,-1.816 -12.833,-2.194 -18.565,-1.856c-10.485,0.619 -19.658,3.511 -26.893,11.501c-16.887,18.651 0.427,49.088 23.44,50.958c7.478,0.608 11.573,-0.221 16.64,-5.601c8.865,-9.412 11.6,-27.923 -3.109,-33.316c-9.209,-3.376 -18.134,4.671 -14.017,14.171c1.801,4.156 5.346,6.555 10.046,5.596c1.71,-0.349 3.288,-5.004 1.543,-5.004" style="fill:none;stroke-width:1.04px;stroke:#000;"/><path d="M178.472,656.043c-11.365,-18.589 -24.885,-38.592 -30.824,-59.771c-19.395,-69.167 105.747,-82.235 154.026,-95.625c19.681,-5.459 53.079,-10.423 90.658,-30.982c23.281,-12.737 124.708,-75.536 56.066,-126.791c-36.008,-26.886 -89.177,-46.593 -115.317,-56.078c-70.4,-25.546 -178.526,-31.614 -241.733,-70.614c-41.483,-25.596 -90.442,-59.892 -90.442,-116.826c0.166,-0.998 0.327,-2.001 0.487,-3.008c2.309,-14.562 4.242,-29.874 13.896,-41.727c14.513,-17.819 43.947,-28.516 65.759,-18.557c15.164,6.924 24.789,23.77 29.159,39.142c4.5,15.83 4.366,34.795 -6.096,48.439c-13.522,17.633 -45.716,24.079 -58.276,1.484c-7.106,-12.782 -10.018,-27.215 -9.746,-41.791c0.072,-3.882 1.392,-8.501 4.571,-11.107c3.337,-2.735 9.05,-3.855 13.186,-3.825c16.159,0.116 22.866,7.619 24.829,23.262c0.312,2.483 0.859,5.099 0.171,7.505c-0.536,1.873 -4.847,3.353 -6.487,2.983c-5.278,-1.191 -12.756,-5.671 -11.569,-12.29c1.163,-6.481 11.375,-6.353 11.375,0.474" style="fill:none;stroke-width:1.05px;stroke:#000;"/></svg>