<?xml version="1.0" standalone="no"?><!DOCTYPE svg PUBLIC "-//W3C//DTD SVG 1.1//EN" "http://www.w3.org/Graphics/SVG/1.1/DTD/svg11.dtd"><svg width="100%" height="100%" viewBox="0 0 493 521" version="1.1" xmlns="http://www.w3.org/2000/svg" xmlns:xlink="http://www.w3.org/1999/xlink" xml:space="preserve" style="fill-rule:evenodd;clip-rule:evenodd;stroke-linecap:round;stroke-linejoin:round;stroke-miterlimit:1.41421;"><path d="M204.728,519.698c-0.372,-15.734 0.356,-31.609 -0.463,-47.322c-1.985,-38.126 -3.707,-68.272 28.139,-94.116c13.127,-10.653 27.32,-18.461 44.431,-20.091c13.769,-1.312 27.855,-0.66 41.667,-0.66c16.675,0 33.187,3.424 49.969,2.246c47.794,-3.355 114.197,-21.071 120.844,-78.119c2.368,-20.329 2.496,-42.508 1.232,-62.922c-4.127,-66.66 -71.668,-120.414 -129.766,-141.832c-16.937,-6.244 -47.049,-19.437 -65.691,-12.869c-9.857,3.474 -18.107,13.321 -24.25,21.46c-5.249,6.957 -8.615,15.127 -9.688,23.793c-0.865,6.989 -1.976,16.819 0.923,23.398c6.72,15.255 25.53,26.663 42.436,20.354c14.142,-5.278 29.871,-28.066 21.218,-43.884c-2.167,-3.96 -6.511,-6.123 -10.917,-6.344c-22.902,-1.15 -21.28,42.181 -0.154,24.058" style="fill:none;stroke-width:1px;stroke:#000;"/><path d="M196.273,516.526c-13.338,-43.952 -30.27,-85.878 -33.518,-132.053c-2.594,-36.889 -55.566,-32.164 -54.64,-68.913c0.977,-38.776 60.952,-118.806 54.151,-157.001c-7.255,-40.743 -18.23,-79.696 -45.721,-111.7c-9.426,-10.973 -22.554,-23.397 -35.139,-31.482c-4.52,-2.904 -9.41,-5.202 -14.273,-7.487c-14.549,-7.207 -31.061,5.921 -39.917,16.393c-12.954,15.317 -30.329,40.002 -25.088,61.642c1.919,7.925 4.977,12.101 9.955,18.369c3.009,3.788 7.086,8.155 11.653,10.156c16.532,7.244 35.255,6.024 52.681,4.246c42.292,-4.315 80.117,-12.522 116.774,-34.441c19.155,-11.453 46.809,-31.09 41.515,-57.398c-3.93,-19.529 -28.785,-29.531 -46.542,-24.317c-17.714,5.201 -27.216,24.172 -25.239,41.711c0.306,2.72 1.164,5.398 2.333,7.873c10.747,22.774 42.456,17.593 48.488,-6.135c1.965,-7.728 -3.933,-26.559 -14.889,-21.706c-9.171,4.062 -18.324,17.999 -5.497,24.29c6.729,3.3 8.023,-5.043 6.385,-9.193" style="fill:none;stroke-width:1.35px;stroke:#000;"/></svg>